<?xml version="1.0" encoding="UTF-8"?>
<svg version="1.1" xmlns="http://www.w3.org/2000/svg" width="1024" height="1024">
<path d="M0 0 C0.7528125 -0.01417969 1.505625 -0.02835938 2.28125 -0.04296875 C4.86401541 0.22531146 6.29796249 0.81092427 8.5 2.1875 C13.35404918 9.48510342 13.01457232 17.89300323 12.8125 26.3125 C12.79703125 27.58971924 12.7815625 28.86693848 12.765625 30.18286133 C12.62805259 39.20933135 12.23548512 48.19094089 11.5 57.1875 C11.5 57.8475 11.5 58.5075 11.5 59.1875 C14.49508394 60.23245151 17.32382771 61.00526061 20.5 61.1875 C24.63760628 58.64128075 27.05021246 55.59200807 30.08203125 51.8046875 C33.33622266 48.09329564 37.18147341 44.26588446 41.68359375 42.171875 C43.85448801 41.26304257 43.85448801 41.26304257 44.5 38.1875 C46.36328125 36.4609375 46.36328125 36.4609375 48.8125 34.5625 C49.71613281 33.86125 50.61976563 33.16 51.55078125 32.4375 C52.52402344 31.695 53.49726562 30.9525 54.5 30.1875 C55.48355469 29.424375 56.46710937 28.66125 57.48046875 27.875 C68.15497085 19.69996087 78.558893 12.53544671 92.1875 10.6875 C97.69399206 11.51866861 102.29679506 13.68004399 106.875 16.8125 C111.5133021 23.59155692 112.02581132 31.89568993 111.9375 39.875 C111.92920166 40.86975342 111.92090332 41.86450684 111.91235352 42.8894043 C111.53328004 60.03404761 107.51041107 76.39961688 102.61108398 92.76098633 C102.30887939 93.80279053 102.0066748 94.84459473 101.6953125 95.91796875 C101.41703613 96.83989014 101.13875977 97.76181152 100.85205078 98.71166992 C100.43240853 101.66284335 100.8312064 102.75512678 102.5 105.1875 C103.92775558 106.38283025 105.3588095 107.57462996 106.8125 108.73828125 C110.08683643 111.55026925 112.76166025 114.86386626 115.5 118.1875 C115.91443359 118.68958984 116.32886719 119.19167969 116.75585938 119.70898438 C127.24737778 132.50167276 135.47501494 145.76101964 141.5 161.1875 C142.15548828 162.79625 142.15548828 162.79625 142.82421875 164.4375 C148.70172264 181.26572167 147.20680133 202.2960326 140.375 218.625 C140.07223145 219.35436768 139.76946289 220.08373535 139.45751953 220.83520508 C136.65714256 227.30349038 132.98961131 232.75469303 128.5 238.1875 C127.98953125 238.8475 127.4790625 239.5075 126.953125 240.1875 C125.86373706 241.5716635 124.69183558 242.89050245 123.5 244.1875 C122.84 244.1875 122.18 244.1875 121.5 244.1875 C120.84 245.5075 120.18 246.8275 119.5 248.1875 C118.84 248.1875 118.18 248.1875 117.5 248.1875 C117.17 249.1775 116.84 250.1675 116.5 251.1875 C102.23803382 263.52280847 85.3048289 271.38701897 67.5 277.1875 C66.18237671 277.62304199 66.18237671 277.62304199 64.83813477 278.06738281 C54.34721266 281.42567372 43.65652112 283.81274807 32.92651367 286.26025391 C20.35753319 289.13632155 8.14737119 292.33805628 -3.6875 297.5625 C-4.36385498 297.85850098 -5.04020996 298.15450195 -5.73706055 298.45947266 C-10.41298898 300.5617064 -14.65883896 302.98004572 -18.80078125 306.0234375 C-20.5 307.1875 -20.5 307.1875 -23.5 308.1875 C-23.5 308.8475 -23.5 309.5075 -23.5 310.1875 C-24.221875 310.88875 -24.94375 311.59 -25.6875 312.3125 C-48.7004095 334.67715852 -47.00003236 383.04300511 -47.46875 412.9921875 C-47.63428754 435.57032604 -45.03782476 456.76568551 -38.75 478.5 C-35.57920811 489.6578088 -32.39260515 501.93973672 -36.65234375 513.24609375 C-39.36280374 517.73956191 -42.42112844 520.59412853 -47.5 522.1875 C-53.58866708 523.27831091 -59.11494407 523.19765478 -65.1875 522.125 C-65.96424072 521.98924561 -66.74098145 521.85349121 -67.54125977 521.71362305 C-79.8104062 519.36447974 -89.78051368 513.99469714 -99.5 506.1875 C-100.35464844 505.5584375 -101.20929687 504.929375 -102.08984375 504.28125 C-113.41836252 494.43994358 -116.55639972 476.27164838 -120.26757812 462.37597656 C-124.67862589 442.31527829 -124.67862589 442.31527829 -134.5 425.1875 C-147.16943939 423.1980839 -157.95189946 428.7805854 -168.2578125 435.5390625 C-170.49702274 437.09322007 -170.49702274 437.09322007 -172.1796875 438.8984375 C-173.5 440.1875 -173.5 440.1875 -175.5 440.1875 C-175.74492188 440.73664063 -175.98984375 441.28578125 -176.2421875 441.8515625 C-180.48541683 449.73184554 -186.95770781 456.4410575 -194.5 461.1875 C-195.386875 461.765 -196.27375 462.3425 -197.1875 462.9375 C-206.76557512 466.55186797 -216.47806818 466.51524638 -226.5 465.1875 C-227.39847656 465.0740625 -228.29695313 464.960625 -229.22265625 464.84375 C-238.17615238 463.40454815 -246.39645727 458.95380116 -252.5 452.1875 C-253.87089027 450.07748515 -255.03486935 447.9317623 -256.1796875 445.69140625 C-258.17663124 441.90430289 -260.52936794 438.35924735 -262.8515625 434.765625 C-263.95159879 433.0451891 -265.02343855 431.3064002 -266.06640625 429.55078125 C-271.19636489 421.09403745 -277.08886405 417.29899975 -286.42578125 414.80078125 C-295.95380853 412.9000185 -305.60294548 412.91023329 -315.28710938 412.7578125 C-327.18670009 412.43456386 -340.36193123 410.58482578 -349.5703125 402.33203125 C-357.83404617 393.3940599 -358.66766787 384.19966513 -358.45703125 372.453125 C-358.43463732 370.33073857 -358.41318254 368.20834206 -358.39257812 366.0859375 C-358.35557198 362.76371683 -358.31258079 359.44201746 -358.25317383 356.12011719 C-358.19831724 352.89771201 -358.16949046 349.67588298 -358.14453125 346.453125 C-358.12074905 345.47361877 -358.09696686 344.49411255 -358.07246399 343.48492432 C-358.03955316 334.71252192 -360.249566 326.61651783 -366.5 320.1875 C-368.34533259 318.59724579 -370.20359624 317.03694753 -372.109375 315.51953125 C-372.56828125 315.07996094 -373.0271875 314.64039063 -373.5 314.1875 C-373.5 313.5275 -373.5 312.8675 -373.5 312.1875 C-374.82 311.5275 -376.14 310.8675 -377.5 310.1875 C-377.5 309.5275 -377.5 308.8675 -377.5 308.1875 C-378.09425781 307.9296875 -378.68851562 307.671875 -379.30078125 307.40625 C-381.69302503 306.08053053 -382.94781639 304.78371136 -384.6875 302.6875 C-387.37501679 299.49355607 -390.14721888 296.42217847 -393 293.375 C-397.5341625 288.35503438 -401.02135749 282.96780072 -404.5 277.1875 C-405.3954596 275.83308617 -406.29125858 274.47889661 -407.1875 273.125 C-415.39583694 259.86745579 -415.81247997 245.80090013 -416.03173828 230.68725586 C-416.06557128 228.56602194 -416.11060483 226.44522616 -416.15625 224.32421875 C-416.17494141 223.07342529 -416.19363281 221.82263184 -416.21289062 220.53393555 C-416.49161565 217.28522475 -416.93012603 215.03700533 -418.5 212.1875 C-422.36824314 210.89808562 -424.49095688 212.04605104 -428.125 213.4375 C-436.9409576 216.68041365 -445.83482931 219.66935493 -454.75 222.625 C-456.930391 223.3484599 -459.11075216 224.07200967 -461.29110718 224.795578 C-462.7150626 225.26808712 -464.1390733 225.74042968 -465.56314087 226.21260071 C-469.5678553 227.54155131 -473.56768742 228.88367761 -477.5625 230.2421875 C-487.41173208 233.58669834 -497.296429 236.65730577 -507.31640625 239.44921875 C-512.19032982 240.80825402 -517.04720179 242.22032876 -521.90234375 243.64453125 C-574.45244127 259.02327535 -638.71447974 269.07280566 -690.5 245.1875 C-691.65628906 244.66285156 -692.81257812 244.13820313 -694.00390625 243.59765625 C-701.81441287 239.93737027 -708.76170634 235.56527968 -715.5 230.1875 C-716.57701172 229.34058594 -716.57701172 229.34058594 -717.67578125 228.4765625 C-727.9639916 219.96631472 -737.89254194 207.78710552 -739.5 194.1875 C-740.14115657 187.00654644 -738.08040848 181.23124967 -734.8125 174.9375 C-731.19886847 170.64020846 -726.8109348 167.9578116 -721.5 166.1875 C-702.40004466 164.88066095 -686.09440989 172.51851575 -669.625 181.375 C-636.51182295 199.06645636 -589.96129063 197.29711729 -554.48779297 186.79394531 C-550.71110258 185.64173469 -546.94245959 184.47147871 -543.1875 183.25 C-542.48254395 183.02143311 -541.77758789 182.79286621 -541.05126953 182.55737305 C-536.12803571 180.89513835 -531.44664052 178.85865298 -526.73364258 176.67553711 C-522.91197887 174.91690817 -519.06738786 173.21419566 -515.21875 171.515625 C-513.7117756 170.84933156 -512.2048594 170.18290648 -510.69799805 169.51635742 C-509.93014984 169.17671967 -509.16230164 168.83708191 -508.3711853 168.4871521 C-495.78187063 162.91424282 -483.2192992 157.31076105 -470.82568359 151.31201172 C-467.0733357 149.497681 -463.31346962 147.69908143 -459.55395508 145.8996582 C-457.59339128 144.96098872 -455.6335304 144.02084889 -453.67456055 143.07885742 C-448.24234071 140.47249666 -442.78221767 137.94103535 -437.29150391 135.46044922 C-434.44669957 134.16319456 -431.61875773 132.83422307 -428.79296875 131.49609375 C-390.94753629 113.6434213 -352.17125004 100.09325253 -311.125 91.75 C-310.37831055 91.59821289 -309.63162109 91.44642578 -308.86230469 91.29003906 C-269.97429841 83.8040534 -232.99937868 91.66169988 -197.47607422 107.5390625 C-164.80806274 123.59357238 -164.80806274 123.59357238 -129.5 123.6875 C-115.27859995 117.31682758 -107.48181224 104.33857589 -99.24804688 91.77758789 C-95.37631484 85.90581331 -91.16193289 80.35565299 -86.80175781 74.84082031 C-85.43742055 73.10801987 -84.08874007 71.36383698 -82.7421875 69.6171875 C-77.26385751 62.53572314 -71.56406906 55.78088059 -65.5 49.1875 C-64.26577083 47.79614104 -63.0362998 46.40054113 -61.8125 45 C-60.96945312 44.03707031 -60.96945312 44.03707031 -60.109375 43.0546875 C-59.06445561 41.84237812 -58.03231416 40.61889248 -57.015625 39.3828125 C-53.88953103 35.60124721 -50.57029131 32.37396821 -46.828125 29.203125 C-44.55330583 27.23365068 -42.3582709 25.1926261 -40.16699219 23.13110352 C-32.43573178 15.89314551 -24.2656074 10.11632384 -15.125 4.8125 C-14.52961426 4.46614502 -13.93422852 4.11979004 -13.32080078 3.76293945 C-8.72489805 1.15955178 -5.24066279 0.04486869 0 0 Z M-42.5 143.1875 C-42.91429374 149.84102199 -41.37127942 155.78218656 -39.76171875 162.2109375 C-39.48028519 163.35285553 -39.19885162 164.49477356 -38.90888977 165.67129517 C-38.31367199 168.07439149 -37.7141517 170.47642573 -37.1105957 172.87744141 C-36.18638145 176.56696531 -35.28495194 180.2615812 -34.38476562 183.95703125 C-33.80345747 186.2920092 -33.22082163 188.6266571 -32.63671875 190.9609375 C-32.36784348 192.07125336 -32.0989682 193.18156921 -31.82194519 194.32553101 C-31.56190201 195.34394073 -31.30185883 196.36235046 -31.03393555 197.41162109 C-30.80965378 198.31206146 -30.58537201 199.21250183 -30.35429382 200.14022827 C-30.07237686 200.81582794 -29.7904599 201.49142761 -29.5 202.1875 C-26.09829444 203.32140185 -25.02062016 203.02694086 -21.625 202.1484375 C-20.64861572 201.90005127 -19.67223145 201.65166504 -18.66625977 201.39575195 C-17.62139404 201.12077881 -16.57652832 200.84580566 -15.5 200.5625 C-13.89306274 200.14907349 -13.89306274 200.14907349 -12.25366211 199.72729492 C-10.05728133 199.16071314 -7.86188431 198.59030425 -5.66748047 198.01611328 C-2.78175843 197.26120804 0.10647602 196.51716673 2.99609375 195.77734375 C4.6433996 195.35222235 6.29054525 194.92647954 7.9375 194.5 C8.67419922 194.31034668 9.41089844 194.12069336 10.16992188 193.92529297 C19.04623271 191.64289565 19.04623271 191.64289565 27.5 188.1875 C26.23252321 184.38506963 24.94918868 183.97046319 21.5625 181.9375 C17.88122928 179.67392019 14.2722805 177.37907505 10.75 174.875 C-15.68592819 153.74976821 -15.68592819 153.74976821 -42.5 143.1875 Z M108.82421875 149.703125 C107.62512549 150.92614695 106.43532336 152.15833229 105.25390625 153.3984375 C103.5 155.1875 103.5 155.1875 100.5 157.625 C97.50192063 160.18585946 95.10582489 162.88342841 92.5546875 165.87109375 C90.10625012 168.63140433 87.54341689 171.26469973 84.9375 173.875 C84.46304443 174.35026123 83.98858887 174.82552246 83.49975586 175.31518555 C81.05801199 177.73226963 78.58275656 180.01099247 75.875 182.125 C73.41529399 183.97354608 73.41529399 183.97354608 72.5 186.375 C72.5 186.973125 72.5 187.57125 72.5 188.1875 C74.71917118 190.40667118 76.05721262 190.85788363 79.0078125 191.80859375 C79.91273438 192.10443359 80.81765625 192.40027344 81.75 192.70507812 C83.173125 193.16043945 83.173125 193.16043945 84.625 193.625 C86.48224391 194.22640558 88.33902235 194.8292507 90.1953125 195.43359375 C91.54737793 195.87034424 91.54737793 195.87034424 92.92675781 196.31591797 C95.25854073 197.10571541 97.52389866 197.98579085 99.8046875 198.91015625 C103.33496903 200.13045441 105.80739345 200.46444549 109.5 200.1875 C111.78148689 187.98720839 113.56793333 175.7570284 115.18481445 163.45214844 C115.44561567 161.57825839 115.75721806 159.71151718 116.08203125 157.84765625 C116.4849573 155.28323903 116.60177066 152.90436323 116.5625 150.3125 C116.55347656 149.53132812 116.54445313 148.75015625 116.53515625 147.9453125 C116.52355469 147.36523438 116.51195312 146.78515625 116.5 146.1875 C113.46008095 146.1875 111.00996956 147.72626879 108.82421875 149.703125 Z " fill="#24282B" transform="translate(770.5,250.8125)"/>
<path d="M0 0 C2.63208091 2.4231856 3.21207793 5.42277043 4.09765625 8.7734375 C4.51610717 10.22142625 4.93941902 11.6680177 5.3671875 13.11328125 C5.58584473 13.85304199 5.80450195 14.59280273 6.02978516 15.35498047 C7.13326436 18.90804352 8.4264577 22.37362852 9.78515625 25.8359375 C10.25050781 27.03734375 10.71585938 28.23875 11.1953125 29.4765625 C12.71443478 32.56920018 14.04187926 34.44342675 16.72265625 36.5859375 C26.00349647 37.01760449 34.33775397 27.50848804 40.76171875 21.7253418 C43.93364785 18.91447081 46.59076198 16.85967934 50.72265625 15.5859375 C54.44620894 19.25503238 58.01699385 23.03268629 61.53515625 26.8984375 C62.03724609 27.44822266 62.53933594 27.99800781 63.05664062 28.56445312 C64.27969593 29.90398989 65.50132633 31.24482742 66.72265625 32.5859375 C63.21276891 41.23176168 52.63466144 47.60288908 45.23046875 52.796875 C42.68935071 54.55545005 42.68935071 54.55545005 40.34375 56.61328125 C37.26761511 58.92840513 34.21164597 60.29586584 30.66015625 61.7734375 C29.45230469 62.28261719 28.24445312 62.79179687 27 63.31640625 C19.73336825 66.13125168 13.37046288 66.38833772 5.984375 63.6796875 C-7.10942185 57.34762685 -13.50001156 42.49997815 -18.27734375 29.5859375 C-19.32396402 26.54228052 -20.29269987 23.48196072 -21.21484375 20.3984375 C-21.53219482 19.33870728 -21.53219482 19.33870728 -21.85595703 18.25756836 C-22.88586793 14.61869592 -23.51985289 11.37054991 -23.27734375 7.5859375 C-18.61717074 5.47776399 -13.87067274 3.58995419 -9.08984375 1.7734375 C-7.90003906 1.31324219 -6.71023438 0.85304687 -5.484375 0.37890625 C-2.27734375 -0.4140625 -2.27734375 -0.4140625 0 0 Z " fill="#323638" transform="translate(604.27734375,147.4140625)"/>
<path d="M0 0 C4.46449424 3.56188997 5.61388175 7.80772227 7.25 13.0625 C7.518125 13.87783203 7.78625 14.69316406 8.0625 15.53320312 C10 21.54834981 10 21.54834981 10 25 C9.25951416 25.24645264 8.51902832 25.49290527 7.75610352 25.74682617 C4.35509629 26.88456651 0.95884433 28.03591845 -2.4375 29.1875 C-3.60216797 29.57486328 -4.76683594 29.96222656 -5.96679688 30.36132812 C-17.85238293 33.77375582 -17.85238293 33.77375582 -26.375 41.75 C-25.25431415 51.46261069 -17.40243577 58.24012118 -11 65 C-8.53316314 67.65702383 -6.4169452 70.18695685 -4.75 73.4375 C-5.27388902 78.80736247 -10.77906349 81.99140027 -14.6953125 85.2265625 C-17.11233822 87.17533252 -19.54556206 89.09867483 -22 91 C-26.58863667 89.60273947 -29.21929235 87.07605248 -32.3125 83.5625 C-32.78816406 83.03261475 -33.26382813 82.50272949 -33.75390625 81.95678711 C-39.51093242 75.44241022 -44.59118754 68.49263606 -49 61 C-49.52078125 60.21109375 -50.0415625 59.4221875 -50.578125 58.609375 C-54.62526913 51.18219841 -56.21094522 41.23151914 -54 33 C-51.39762905 26.23383554 -46.55873064 22.38847156 -41 18 C-40.53021729 17.50411377 -40.06043457 17.00822754 -39.57641602 16.49731445 C-37.9106487 14.91513218 -36.48891757 14.108719 -34.40234375 13.16796875 C-33.3359668 12.68662476 -33.3359668 12.68662476 -32.24804688 12.19555664 C-31.48556641 11.86289795 -30.72308594 11.53023926 -29.9375 11.1875 C-29.15052734 10.84001709 -28.36355469 10.49253418 -27.55273438 10.13452148 C-20.34268152 7.01907537 -12.98196601 4.50189581 -5.5 2.12890625 C-2.19353332 1.15970734 -2.19353332 1.15970734 0 0 Z " fill="#25292C" transform="translate(678,197)"/>
<path d="M0 0 C2.78427531 0.20143471 4.46774385 0.558151 6.6328125 2.35546875 C7.12523437 2.96003906 7.61765625 3.56460938 8.125 4.1875 C8.71410156 4.90550781 9.30320312 5.62351563 9.91015625 6.36328125 C10.59980469 7.23339844 11.28945313 8.10351562 12 9 C12.89404579 10.0980517 13.78861114 11.19568049 14.68359375 12.29296875 C20.00642251 18.87807093 25.08903393 25.45472784 29 33 C29.41121094 33.7734375 29.82242188 34.546875 30.24609375 35.34375 C33.88372938 43.0973263 34.6202804 51.66597956 32.1171875 59.90625 C27.50592933 70.04491034 17.416256 76.837347 7.37109375 81.12109375 C6.58863281 81.41113281 5.80617188 81.70117188 5 82 C3.906875 82.433125 2.81375 82.86625 1.6875 83.3125 C-2.56435385 84.89269089 -6.86936253 86.30122004 -11.1875 87.6875 C-11.87690674 87.9141333 -12.56631348 88.1407666 -13.27661133 88.37426758 C-16.95274028 89.53643887 -20.13886948 90.27740161 -24 90 C-31 72.23282443 -31 72.23282443 -31 66 C-26.88100685 64.41793218 -22.77062639 62.89831717 -18.5625 61.5703125 C-17.81226563 61.33183594 -17.06203125 61.09335938 -16.2890625 60.84765625 C-14.76524714 60.36658826 -13.23917862 59.89259893 -11.7109375 59.42578125 C-6.39360383 57.71729088 -1.33875233 55.59810553 3 52 C4.48598795 48.39117213 4.44995459 46.33001282 3.203125 42.64453125 C0.57104165 36.83051152 -3.01044129 32.38290735 -7.42578125 27.8125 C-9 26 -9 26 -9 24 C-9.598125 23.731875 -10.19625 23.46375 -10.8125 23.1875 C-13.07573361 21.95888747 -14.51540577 21.10968654 -16 19 C-15.97141006 16.29348532 -15.49206867 14.57903193 -13.72631836 12.5012207 C-12.04946408 10.88023594 -10.32617304 9.33850159 -8.5625 7.8125 C-7.37628677 6.75652762 -6.19008824 5.70053873 -5.00390625 4.64453125 C-4.21222046 3.95387573 -4.21222046 3.95387573 -3.40454102 3.24926758 C-2.23237267 2.20668363 -1.10927001 1.10927001 0 0 Z " fill="#292D30" transform="translate(562,166)"/>
<path d="M0 0 C1.36125 0.9590625 1.36125 0.9590625 2.75 1.9375 C3.36101563 2.36675781 3.97203125 2.79601562 4.6015625 3.23828125 C14.72927129 11.11756048 19.71475499 23.11269974 23.75 34.9375 C24.30665707 36.49762241 24.86399049 38.0575036 25.421875 39.6171875 C25.99130196 41.24419119 26.55902221 42.87179325 27.125 44.5 C27.40037598 45.27432373 27.67575195 46.04864746 27.95947266 46.84643555 C28.33144775 47.94532104 28.33144775 47.94532104 28.7109375 49.06640625 C28.93571777 49.71681885 29.16049805 50.36723145 29.39208984 51.03735352 C29.82736723 53.34824294 29.59280389 54.74972879 28.75 56.9375 C22.35407693 60.97703036 13.40362589 64.76491902 5.75 63.9375 C3.77980815 59.14703353 1.84623389 54.36730523 0.25 49.4375 C-1.35594167 44.50621172 -3.25481805 39.72269249 -5.25 34.9375 C-5.70375 33.761875 -6.1575 32.58625 -6.625 31.375 C-8.07278912 28.71033461 -8.07278912 28.71033461 -11 27.8125 C-18.99720067 28.12008464 -25.37194314 35.06988597 -31.25 39.9375 C-31.85457031 40.42863281 -32.45914063 40.91976562 -33.08203125 41.42578125 C-35.35161447 43.28166829 -37.38616403 45.09429494 -39.3125 47.3125 C-39.951875 47.84875 -40.59125 48.385 -41.25 48.9375 C-44 48.6875 -44 48.6875 -46.25 47.9375 C-46.353125 47.298125 -46.45625 46.65875 -46.5625 46 C-46.789375 45.319375 -47.01625 44.63875 -47.25 43.9375 C-48.24 43.6075 -49.23 43.2775 -50.25 42.9375 C-51.75 41.4140625 -51.75 41.4140625 -53.25 39.5625 C-54.76042413 37.7138038 -56.17601213 36.00369967 -57.95703125 34.41015625 C-58.38371094 33.92417969 -58.81039062 33.43820312 -59.25 32.9375 C-58.9375 29.75 -58.9375 29.75 -58.25 26.9375 C-56.93 26.6075 -55.61 26.2775 -54.25 25.9375 C-54.25 25.2775 -54.25 24.6175 -54.25 23.9375 C-52.09754586 22.11045155 -49.93639683 20.38832731 -47.6875 18.6875 C-46.3935201 17.69402394 -45.10053931 16.69924513 -43.80859375 15.703125 C-43.18839355 15.22552734 -42.56819336 14.74792969 -41.92919922 14.25585938 C-39.9713008 12.71868993 -38.10186469 11.10039891 -36.25 9.4375 C-33.26034877 6.94612397 -30.8095995 5.48223186 -27.25 3.9375 C-25.95255859 3.29941406 -25.95255859 3.29941406 -24.62890625 2.6484375 C-16.41227187 -1.17673169 -8.81485915 -2.88178088 0 0 Z " fill="#272B2D" transform="translate(608.25,242.0625)"/>
<path d="M0 0 C0 3 0 3 -1.72265625 4.98046875 C-2.49480469 5.70878906 -3.26695312 6.43710937 -4.0625 7.1875 C-12.03597206 14.92536402 -18.81434422 23.45112469 -25.61230469 32.21386719 C-26.90560609 33.87850355 -28.20577071 35.53751028 -29.5078125 37.1953125 C-36.80784365 46.56094732 -43.62826686 56.25212693 -50.39306641 66.00927734 C-65.09866486 87.21629828 -65.09866486 87.21629828 -78.37109375 90.60546875 C-102.77881432 94.26844019 -125.65280205 82.73993689 -147.25 72.875 C-161.96201709 66.16388298 -176.18306003 61.35912279 -192 58 C-192.72953888 57.83368576 -193.45907776 57.66737152 -194.21072388 57.49601746 C-200.04965366 56.22561364 -205.56385882 55.6925094 -211.53125 55.69921875 C-212.40664429 55.69493362 -213.28203857 55.6906485 -214.18395996 55.68623352 C-216.02595157 55.68053181 -217.86796568 55.67995895 -219.70996094 55.68432617 C-222.46590705 55.68746122 -225.22075043 55.66406084 -227.9765625 55.63867188 C-244.60022913 55.57731892 -260.01177633 58.26299981 -276.125 62.25 C-277.36290283 62.55446045 -278.60080566 62.8589209 -279.8762207 63.17260742 C-324.40258026 74.26493874 -365.37143465 93.13052443 -406.59924316 112.85174561 C-464.52397759 140.55648016 -517.61875441 165.4239883 -583.6875 158.8125 C-584.75484375 158.71187256 -585.8221875 158.61124512 -586.921875 158.50756836 C-597.25621069 157.29334924 -606.08435221 153.27047998 -615.0625 148.1875 C-623.74182972 143.41415586 -632.78980283 139.62074354 -642 136 C-642.95777344 135.61457031 -643.91554688 135.22914063 -644.90234375 134.83203125 C-653.11162087 131.92258695 -663.29019189 131.4730156 -671.625 134.125 C-676.90527355 137.0584853 -680.32881339 141.22281845 -682.48828125 146.90234375 C-684.78368186 156.31173405 -682.7143198 164.73079869 -678 173 C-675.23753489 176.90359555 -672.22504114 180.47261125 -669 184 C-668.4225 184.64710938 -667.845 185.29421875 -667.25 185.9609375 C-660.8359935 192.7758194 -652.81663182 197.92975233 -645 203 C-645.66 203.33 -646.32 203.66 -647 204 C-654.16945709 200.89931504 -659.85552704 195.67910139 -665.45703125 190.3671875 C-667.92477042 187.98798498 -667.92477042 187.98798498 -670.53515625 186.08984375 C-673.44840514 183.61981497 -675.50900562 180.82865717 -677.625 177.6875 C-678.19734375 176.87249023 -678.19734375 176.87249023 -678.78125 176.04101562 C-684.53677679 167.63596184 -687.3596154 158.56215838 -685.52734375 148.37109375 C-683.20021612 140.855616 -679.66577019 135.99179077 -672.90234375 131.98046875 C-664.98463727 127.89967958 -654.24999227 129.30848784 -646.01171875 131.90625 C-635.6637374 135.66427176 -625.82719228 139.9701113 -616.125 145.1875 C-583.01182295 162.87895636 -536.46129063 161.10961729 -500.98779297 150.60644531 C-497.21110258 149.45423469 -493.44245959 148.28397871 -489.6875 147.0625 C-488.98254395 146.83393311 -488.27758789 146.60536621 -487.55126953 146.36987305 C-482.62803571 144.70763835 -477.94664052 142.67115298 -473.23364258 140.48803711 C-469.41197887 138.72940817 -465.56738786 137.02669566 -461.71875 135.328125 C-460.2117756 134.66183156 -458.7048594 133.99540648 -457.19799805 133.32885742 C-456.43014984 132.98921967 -455.66230164 132.64958191 -454.8711853 132.2996521 C-442.28187063 126.72674282 -429.7192992 121.12326105 -417.32568359 115.12451172 C-413.5733357 113.310181 -409.81346962 111.51158143 -406.05395508 109.7121582 C-404.09339128 108.77348872 -402.1335304 107.83334889 -400.17456055 106.89135742 C-394.74234071 104.28499666 -389.28221767 101.75353535 -383.79150391 99.27294922 C-380.94669957 97.97569456 -378.11875773 96.64672307 -375.29296875 95.30859375 C-337.44753629 77.4559213 -298.67125004 63.90575253 -257.625 55.5625 C-256.87831055 55.41071289 -256.13162109 55.25892578 -255.36230469 55.10253906 C-216.47429841 47.6165534 -179.49937868 55.47419988 -143.97607422 71.3515625 C-111.30806274 87.40607238 -111.30806274 87.40607238 -76 87.5 C-61.77859995 81.12932758 -53.98181224 68.15107589 -45.74804688 55.59008789 C-41.87631484 49.71831331 -37.66193289 44.16815299 -33.30175781 38.65332031 C-31.93742055 36.92051987 -30.58874007 35.17633698 -29.2421875 33.4296875 C-24.39170019 27.15979265 -19.43228911 21.08573941 -14.0625 15.24609375 C-12.08457106 13.09209917 -10.16185118 10.90013811 -8.25 8.6875 C-5.61384097 5.65806783 -2.88256788 2.79521734 0 0 Z " fill="#ECEDED" transform="translate(717,287)"/>
<path d="M0 0 C5.49457612 3.05135683 6.69222063 6.50359286 8.37011719 12.3125 C9.40210967 16.82373656 9.50026804 21.19216277 9.44921875 25.8046875 C9.44092041 26.79944092 9.43262207 27.79419434 9.42407227 28.8190918 C9.04499879 45.96373511 5.02212982 62.32930438 0.12280273 78.69067383 C-0.17940186 79.73247803 -0.48160645 80.77428223 -0.79296875 81.84765625 C-1.07124512 82.76957764 -1.34952148 83.69149902 -1.63623047 84.64135742 C-2.05587272 87.59253085 -1.65707485 88.68481428 0.01171875 91.1171875 C1.43947433 92.31251775 2.87052825 93.50431746 4.32421875 94.66796875 C7.59855518 97.47995675 10.273379 100.79355376 13.01171875 104.1171875 C13.42615234 104.61927734 13.84058594 105.12136719 14.26757812 105.63867188 C24.75909653 118.43136026 32.98673369 131.69070714 39.01171875 147.1171875 C39.44871094 148.1896875 39.88570312 149.2621875 40.3359375 150.3671875 C46.21344139 167.19540917 44.71852008 188.2257201 37.88671875 204.5546875 C37.43256592 205.64873901 37.43256592 205.64873901 36.96923828 206.76489258 C34.16886131 213.23317788 30.50133006 218.68438053 26.01171875 224.1171875 C25.24601562 225.1071875 25.24601562 225.1071875 24.46484375 226.1171875 C23.37545581 227.501351 22.20355433 228.82018995 21.01171875 230.1171875 C20.35171875 230.1171875 19.69171875 230.1171875 19.01171875 230.1171875 C18.35171875 231.4371875 17.69171875 232.7571875 17.01171875 234.1171875 C16.35171875 234.1171875 15.69171875 234.1171875 15.01171875 234.1171875 C14.68171875 235.1071875 14.35171875 236.0971875 14.01171875 237.1171875 C-0.25024743 249.45249597 -17.18345235 257.31670647 -34.98828125 263.1171875 C-35.86669678 263.40754883 -36.7451123 263.69791016 -37.65014648 263.99707031 C-48.14106859 267.35536122 -58.83176013 269.74243557 -69.56176758 272.18994141 C-82.13074806 275.06600905 -94.34091006 278.26774378 -106.17578125 283.4921875 C-106.85213623 283.78818848 -107.52849121 284.08418945 -108.2253418 284.38916016 C-112.90127023 286.4913939 -117.14712021 288.90973322 -121.2890625 291.953125 C-122.98828125 293.1171875 -122.98828125 293.1171875 -125.98828125 294.1171875 C-125.98828125 294.7771875 -125.98828125 295.4371875 -125.98828125 296.1171875 C-126.71015625 296.8184375 -127.43203125 297.5196875 -128.17578125 298.2421875 C-151.18869075 320.60684602 -149.48831361 368.97269261 -149.95703125 398.921875 C-150.12256879 421.50001354 -147.52610601 442.69537301 -141.23828125 464.4296875 C-138.06748936 475.5874963 -134.8808864 487.86942422 -139.140625 499.17578125 C-141.85108499 503.66924941 -144.90940969 506.52381603 -149.98828125 508.1171875 C-157.19946295 509.80123592 -163.82359496 508.58406913 -170.98828125 507.1171875 C-170.98828125 506.7871875 -170.98828125 506.4571875 -170.98828125 506.1171875 C-169.03535156 506.16939453 -169.03535156 506.16939453 -167.04296875 506.22265625 C-165.31641921 506.25080651 -163.58985564 506.27810534 -161.86328125 506.3046875 C-161.00734375 506.32982422 -160.15140625 506.35496094 -159.26953125 506.38085938 C-154.06287698 506.44093615 -150.48455521 506.04984223 -145.98828125 503.1171875 C-139.54214241 495.97416879 -140.27395154 488.25367966 -140.70117188 479.06689453 C-141.47710404 471.09511523 -144.0565457 463.42008899 -146.26611328 455.75292969 C-147.75339184 450.32471491 -148.758341 444.79159812 -149.64013672 439.23510742 C-149.89899603 437.66034969 -150.18953168 436.09073296 -150.49658203 434.5246582 C-152.41814868 423.90109069 -152.38312783 413.31396063 -152.36328125 402.5546875 C-152.3634021 401.54940002 -152.36352295 400.54411255 -152.36364746 399.50836182 C-152.22914726 320.43319164 -152.22914726 320.43319164 -128.92578125 294.4296875 C-112.77736051 279.39371352 -87.97401591 273.24971385 -67.10864258 268.73510742 C-38.89348887 262.61924496 -11.65373342 254.7274789 11.01171875 236.1171875 C11.8728125 235.446875 12.73390625 234.7765625 13.62109375 234.0859375 C27.64205718 222.53926173 38.4013396 203.03844433 41.01171875 185.1171875 C41.17881948 181.72047855 41.19682245 178.33003531 41.19921875 174.9296875 C41.21146484 174.03443359 41.22371094 173.13917969 41.23632812 172.21679688 C41.28784734 148.43209327 28.63865394 125.42143237 13.01171875 108.1171875 C11.88443359 106.81201172 11.88443359 106.81201172 10.734375 105.48046875 C6.63381361 100.7911088 2.47922802 96.59508652 -2.45703125 92.78515625 C-4.47179321 90.59050483 -4.63519125 89.05836061 -4.98828125 86.1171875 C-4.52270508 83.77148438 -4.52270508 83.77148438 -3.6953125 81.3359375 C-3.39641113 80.42134766 -3.09750977 79.50675781 -2.78955078 78.56445312 C-2.46325684 77.59185547 -2.13696289 76.61925781 -1.80078125 75.6171875 C1.74241523 64.57666488 4.17509259 53.55596154 6.01171875 42.1171875 C6.20378906 40.95832031 6.39585937 39.79945313 6.59375 38.60546875 C7.86664454 27.98215265 9.01631007 15.47272817 3.01171875 6.1171875 C-0.09326515 2.40635308 -2.22426 0.37662632 -7.15234375 -0.0859375 C-12.66220936 -0.19088732 -16.96558369 0.47089539 -22.078125 2.55859375 C-23.98828125 3.1171875 -23.98828125 3.1171875 -26.98828125 2.1171875 C-25.38454815 1.47027828 -23.78027819 0.82469986 -22.17578125 0.1796875 C-21.28246094 -0.17996094 -20.38914062 -0.53960937 -19.46875 -0.91015625 C-12.20774825 -3.75738371 -6.93934081 -3.41665337 0 0 Z " fill="#E8E9E8" transform="translate(872.98828125,264.8828125)"/>
<path d="M0 0 C1.77825355 3.84400917 2.26959788 6.93469335 2.34375 11.15625 C2.38822266 12.93902344 2.38822266 12.93902344 2.43359375 14.7578125 C2.45550781 15.99273437 2.47742188 17.22765625 2.5 18.5 C2.84327204 37.35976984 5.16415092 54.10570952 16 70 C16.58523438 70.87011719 17.17046875 71.74023438 17.7734375 72.63671875 C23.88862249 81.38517728 31.04042102 89.19485943 38.6875 96.625 C41 99 41 99 41 101 C41.85271484 101.36738281 41.85271484 101.36738281 42.72265625 101.7421875 C50.53386624 106.0564407 57.18892361 114.56677082 60 123 C60.09585994 124.71094113 60.13538221 126.42530378 60.1418457 128.13891602 C60.14888016 129.18753311 60.15591461 130.23615021 60.16316223 131.31654358 C60.16732651 132.45087326 60.17149078 133.58520294 60.17578125 134.75390625 C60.19899099 137.15951385 60.22310879 139.56511282 60.24804688 141.97070312 C60.28306933 145.76023022 60.31245357 149.54944256 60.32592773 153.33911133 C60.34148373 156.99859833 60.38175623 160.65716497 60.42578125 164.31640625 C60.42291862 165.99664635 60.42291862 165.99664635 60.41999817 167.71083069 C60.55341961 176.37328424 62.44247304 183.01326679 67.125 190.3125 C79.83539994 202.19396081 99.10414834 201.40711146 115.4074707 201.44628906 C126.97167446 201.60730862 138.51077544 203.56699547 147 212 C151.76025642 217.2891738 156.30697319 223.36561624 159 230 C158.67 230.66 158.34 231.32 158 232 C152.37251656 223.64072848 152.37251656 223.64072848 150.4375 220.3125 C145.2185015 211.91671981 139.42713351 208.11578012 130.07421875 205.61328125 C120.54619147 203.7125185 110.89705452 203.72273329 101.21289062 203.5703125 C89.31329991 203.24706386 76.13806877 201.39732578 66.9296875 193.14453125 C58.66595383 184.2065599 57.83233213 175.01216513 58.04296875 163.265625 C58.06536268 161.14323857 58.08681746 159.02084206 58.10742188 156.8984375 C58.14442802 153.57621683 58.18741921 150.25451746 58.24682617 146.93261719 C58.30168276 143.71021201 58.33050954 140.48838298 58.35546875 137.265625 C58.37925095 136.28611877 58.40303314 135.30661255 58.42753601 134.29742432 C58.46044684 125.52502192 56.250434 117.42901783 50 111 C48.15466741 109.40974579 46.29640376 107.84944753 44.390625 106.33203125 C43.93171875 105.89246094 43.4728125 105.45289063 43 105 C43 104.34 43 103.68 43 103 C41.68 102.34 40.36 101.68 39 101 C39 100.34 39 99.68 39 99 C38.40574219 98.7421875 37.81148438 98.484375 37.19921875 98.21875 C34.80697497 96.89303053 33.55218361 95.59621136 31.8125 93.5 C29.12498321 90.30605607 26.35278112 87.23467847 23.5 84.1875 C18.9658375 79.16753438 15.47864251 73.78030072 12 68 C11.1045404 66.64558617 10.20874142 65.29139661 9.3125 63.9375 C1.10416306 50.67995579 0.68752003 36.61340013 0.46826172 21.49975586 C0.43442872 19.37852194 0.38939517 17.25772616 0.34375 15.13671875 C0.32505859 13.88592529 0.30636719 12.63513184 0.28710938 11.34643555 C0.00838435 8.09772475 -0.43012603 5.84950533 -2 3 C-5.86824314 1.71058562 -7.99095688 2.85855104 -11.625 4.25 C-20.4409576 7.49291365 -29.33482931 10.48185493 -38.25 13.4375 C-40.430391 14.1609599 -42.61075216 14.88450967 -44.79110718 15.608078 C-46.2150626 16.08058712 -47.6390733 16.55292968 -49.06314087 17.02510071 C-53.0678553 18.35405131 -57.06768742 19.69617761 -61.0625 21.0546875 C-70.91173208 24.39919834 -80.796429 27.46980577 -90.81640625 30.26171875 C-95.69032982 31.62075402 -100.54720179 33.03282876 -105.40234375 34.45703125 C-160.93207165 50.7077618 -228.54075991 60.30195064 -282 32 C-279 31 -279 31 -276.93359375 31.8203125 C-276.10988281 32.25085938 -275.28617187 32.68140625 -274.4375 33.125 C-249.82942785 44.81221105 -220.42493193 46.42725938 -193.625 46.3125 C-192.73168976 46.31067719 -191.83837952 46.30885437 -190.91799927 46.30697632 C-177.38098714 46.26062341 -164.3119997 45.60446443 -151 43 C-149.23061566 42.69056503 -147.46107869 42.38200177 -145.69140625 42.07421875 C-112.11913145 35.91170088 -79.32719467 24.08901331 -46.95410156 13.50390625 C-43.47787077 12.36776749 -40.0006747 11.23461678 -36.5234375 10.1015625 C-34.27598252 9.36736853 -32.02858463 8.63299977 -29.78125 7.8984375 C-28.24966248 7.39985733 -28.24966248 7.39985733 -26.68713379 6.89120483 C-20.86747519 4.98474637 -15.11716191 2.96138925 -9.40100098 0.76235962 C-6.09648574 -0.28688151 -3.43368664 -0.30521659 0 0 Z " fill="#E5E5E5" transform="translate(354,460)"/>
<path d="M0 0 C0.70511719 -0.03996094 1.41023437 -0.07992187 2.13671875 -0.12109375 C5.58762676 0.76486648 7.00844501 2.75823439 9.3125 5.4375 C10.73606201 8.19150096 11.74449331 11.04248036 12.74609375 13.97265625 C13.04100204 14.80402603 13.33591034 15.63539581 13.63975525 16.49195862 C17.20034268 26.69852244 20.16193011 37.09177655 23.11743164 47.48608398 C28.40882096 66.02070761 33.40755623 79.22357383 50.6015625 89.50390625 C56.83992646 92.9089707 63.59960133 95.16252535 70.3125 97.4375 C70.3125 97.7675 70.3125 98.0975 70.3125 98.4375 C58.63961248 99.14387746 48.01185769 91.42527674 39.3125 84.4375 C38.03052734 83.49390625 38.03052734 83.49390625 36.72265625 82.53125 C25.39413748 72.68994358 22.25610028 54.52164838 18.54492188 40.62597656 C14.13387411 20.56527829 14.13387411 20.56527829 4.3125 3.4375 C-8.35693939 1.4480839 -19.13939946 7.0305854 -29.4453125 13.7890625 C-31.68452274 15.34322007 -31.68452274 15.34322007 -33.3671875 17.1484375 C-34.6875 18.4375 -34.6875 18.4375 -36.6875 18.4375 C-37.05488281 19.26121094 -37.05488281 19.26121094 -37.4296875 20.1015625 C-41.67291683 27.98184554 -48.14520781 34.6910575 -55.6875 39.4375 C-56.574375 40.015 -57.46125 40.5925 -58.375 41.1875 C-67.95307512 44.80186797 -77.66556818 44.76524638 -87.6875 43.4375 C-88.58597656 43.3240625 -89.48445312 43.210625 -90.41015625 43.09375 C-99.36286754 41.65467431 -107.58560051 37.2039628 -113.6875 30.4375 C-115.64474542 27.5694572 -117.44005022 24.68606713 -118.6875 21.4375 C-118.3575 20.7775 -118.0275 20.1175 -117.6875 19.4375 C-117.26339844 20.08976563 -116.83929687 20.74203125 -116.40234375 21.4140625 C-109.01451619 32.42273741 -101.42923534 38.09226742 -88.3125 41.25 C-86.518125 41.3428125 -86.518125 41.3428125 -84.6875 41.4375 C-83.16382813 41.5303125 -83.16382813 41.5303125 -81.609375 41.625 C-69.73366419 42.04352725 -57.6457454 39.78459042 -48.6875 31.4375 C-46.51082189 28.78326771 -44.44591842 26.08476623 -42.40185547 23.32958984 C-32.79069552 10.42991641 -16.52498614 0.51926944 0 0 Z " fill="#EFF0F0" transform="translate(631.6875,672.5625)"/>
<path d="M0 0 C3.31972016 1.67776508 6.59914789 3.42589877 9.875 5.1875 C30.35895803 16.13151328 50.29665268 17.49031963 73.25 17.1875 C75.27863569 17.17239728 77.30728249 17.15871895 79.3359375 17.14648438 C84.22424184 17.1139871 89.1119914 17.06252701 94 17 C94 17.33 94 17.66 94 18 C92.02 18 90.04 18 88 18 C88 18.66 88 19.32 88 20 C72.72029523 20.30093348 57.53222085 20.4007482 42.3125 18.8125 C40.71474731 18.66107544 40.71474731 18.66107544 39.0847168 18.5065918 C28.74761598 17.2978935 19.91697427 13.27123096 10.9375 8.1875 C2.25817028 3.41415586 -6.78980283 -0.37925646 -16 -4 C-16.95777344 -4.38542969 -17.91554687 -4.77085937 -18.90234375 -5.16796875 C-27.11162087 -8.07741305 -37.29019189 -8.5269844 -45.625 -5.875 C-50.90527355 -2.9415147 -54.32881339 1.22281845 -56.48828125 6.90234375 C-58.78368186 16.31173405 -56.7143198 24.73079869 -52 33 C-49.23753489 36.90359555 -46.22504114 40.47261125 -43 44 C-42.4225 44.64710938 -41.845 45.29421875 -41.25 45.9609375 C-34.8359935 52.7758194 -26.81663182 57.92975233 -19 63 C-19.99 63.495 -19.99 63.495 -21 64 C-28.16945709 60.89931504 -33.85552704 55.67910139 -39.45703125 50.3671875 C-41.92477042 47.98798498 -41.92477042 47.98798498 -44.53515625 46.08984375 C-47.44840514 43.61981497 -49.50900562 40.82865717 -51.625 37.6875 C-52.0065625 37.14416016 -52.388125 36.60082031 -52.78125 36.04101562 C-58.53677679 27.63596184 -61.3596154 18.56215838 -59.52734375 8.37109375 C-57.20021612 0.855616 -53.66577019 -4.00820923 -46.90234375 -8.01953125 C-32.42678181 -15.48024182 -13.40539727 -6.26404766 0 0 Z " fill="#E2E3E3" transform="translate(91,427)"/>
<path d="M0 0 C0.7528125 -0.01417969 1.505625 -0.02835938 2.28125 -0.04296875 C4.86401541 0.22531146 6.29796249 0.81092427 8.5 2.1875 C13.35404918 9.48510342 13.01457232 17.89300323 12.8125 26.3125 C12.79703125 27.58971924 12.7815625 28.86693848 12.765625 30.18286133 C12.62805259 39.20933135 12.23548512 48.19094089 11.5 57.1875 C11.5 57.8475 11.5 58.5075 11.5 59.1875 C14.49508394 60.23245151 17.32382771 61.00526061 20.5 61.1875 C24.63760628 58.64128075 27.05021246 55.59200807 30.08203125 51.8046875 C33.33622266 48.09329564 37.18147341 44.26588446 41.68359375 42.171875 C43.85448801 41.26304257 43.85448801 41.26304257 44.5 38.1875 C46.36328125 36.4609375 46.36328125 36.4609375 48.8125 34.5625 C49.71226562 33.86382812 50.61203125 33.16515625 51.5390625 32.4453125 C52.51617188 31.70023437 53.49328125 30.95515625 54.5 30.1875 C56.02753906 29.00800781 56.02753906 29.00800781 57.5859375 27.8046875 C68.13506437 19.75333878 68.13506437 19.75333878 73.5 17.1875 C74.16 17.5175 74.82 17.8475 75.5 18.1875 C74.76136719 18.66058594 74.02273438 19.13367188 73.26171875 19.62109375 C65.9416625 24.39261708 59.16946063 29.52610899 52.5 35.1875 C51.4211718 36.08015137 50.34171978 36.97204922 49.26171875 37.86328125 C44.04006751 42.21640132 38.98994054 46.61812195 34.26171875 51.51171875 C33.55168701 52.24511475 32.84165527 52.97851074 32.11010742 53.73413086 C30.72720366 55.17815567 29.35822172 56.63567246 28.00512695 58.10766602 C23.28239659 63.05359349 23.28239659 63.05359349 19.3046875 63.734375 C15.41255164 62.97546271 12.16436769 61.70379008 8.5 60.1875 C8.47222486 58.85429321 8.45326659 57.52090287 8.4375 56.1875 C8.42589844 55.445 8.41429687 54.7025 8.40234375 53.9375 C8.5 51.1875 8.5 51.1875 8.99121094 47.50244141 C9.78342239 41.29373395 9.76167582 35.06413406 9.79516602 28.81445312 C9.8067503 27.30947517 9.82730262 25.8045403 9.85668945 24.29980469 C9.8994456 22.10323748 9.91553486 19.90786941 9.92578125 17.7109375 C9.94036377 16.41075684 9.95494629 15.11057617 9.9699707 13.77099609 C9.38694195 9.32543968 7.67547491 6.36297491 4.5 3.1875 C-4.90106428 0.93045951 -12.29525795 5.56829157 -20.046875 10.2578125 C-26.39890615 14.31409244 -31.96108212 19.10169529 -37.5 24.1875 C-38.97591057 25.48288597 -40.45461744 26.77510102 -41.9375 28.0625 C-42.54464844 28.59746094 -43.15179687 29.13242187 -43.77734375 29.68359375 C-46.31389478 31.89804306 -48.90273328 34.04475496 -51.5 36.1875 C-51.83 35.5275 -52.16 34.8675 -52.5 34.1875 C-52.06171875 33.80980469 -51.6234375 33.43210937 -51.171875 33.04296875 C-47.43389805 29.79883022 -43.76182104 26.50449619 -40.15380859 23.11572266 C-32.41953937 15.89031943 -24.26082936 10.11355139 -15.125 4.8125 C-14.52961426 4.46614502 -13.93422852 4.11979004 -13.32080078 3.76293945 C-8.72489805 1.15955178 -5.24066279 0.04486869 0 0 Z " fill="#E1E3E3" transform="translate(770.5,250.8125)"/>
<path d="M0 0 C5.49457612 3.05135683 6.69222063 6.50359286 8.37011719 12.3125 C9.40210967 16.82373656 9.50026804 21.19216277 9.44921875 25.8046875 C9.44092041 26.79944092 9.43262207 27.79419434 9.42407227 28.8190918 C9.04499879 45.96373511 5.02212982 62.32930438 0.12280273 78.69067383 C-0.17940186 79.73247803 -0.48160645 80.77428223 -0.79296875 81.84765625 C-1.07124512 82.76957764 -1.34952148 83.69149902 -1.63623047 84.64135742 C-2.05587272 87.59253085 -1.65707485 88.68481428 0.01171875 91.1171875 C1.43947433 92.31251775 2.87052825 93.50431746 4.32421875 94.66796875 C7.59855518 97.47995675 10.273379 100.79355376 13.01171875 104.1171875 C13.42615234 104.61927734 13.84058594 105.12136719 14.26757812 105.63867188 C24.75909653 118.43136026 32.98673369 131.69070714 39.01171875 147.1171875 C39.66720703 148.7259375 39.66720703 148.7259375 40.3359375 150.3671875 C45.05604128 163.88158992 45.35718138 182.4267544 41.01171875 196.1171875 C40.35171875 196.7771875 39.69171875 197.4371875 39.01171875 198.1171875 C39.91328584 190.51826488 39.91328584 190.51826488 40.53515625 187.984375 C41.2573966 183.63909292 41.19611991 179.32693678 41.19921875 174.9296875 C41.21146484 174.03443359 41.22371094 173.13917969 41.23632812 172.21679688 C41.28784734 148.43209327 28.63865394 125.42143237 13.01171875 108.1171875 C12.26019531 107.24707031 11.50867188 106.37695312 10.734375 105.48046875 C6.63381361 100.7911088 2.47922802 96.59508652 -2.45703125 92.78515625 C-4.47179321 90.59050483 -4.63519125 89.05836061 -4.98828125 86.1171875 C-4.52270508 83.77148438 -4.52270508 83.77148438 -3.6953125 81.3359375 C-3.39641113 80.42134766 -3.09750977 79.50675781 -2.78955078 78.56445312 C-2.46325684 77.59185547 -2.13696289 76.61925781 -1.80078125 75.6171875 C1.74241523 64.57666488 4.17509259 53.55596154 6.01171875 42.1171875 C6.20378906 40.95832031 6.39585937 39.79945313 6.59375 38.60546875 C7.86664454 27.98215265 9.01631007 15.47272817 3.01171875 6.1171875 C-0.09326515 2.40635308 -2.22426 0.37662632 -7.15234375 -0.0859375 C-12.66220936 -0.19088732 -16.96558369 0.47089539 -22.078125 2.55859375 C-23.98828125 3.1171875 -23.98828125 3.1171875 -26.98828125 2.1171875 C-25.38454815 1.47027828 -23.78027819 0.82469986 -22.17578125 0.1796875 C-20.83580078 -0.35978516 -20.83580078 -0.35978516 -19.46875 -0.91015625 C-12.20774825 -3.75738371 -6.93934081 -3.41665337 0 0 Z " fill="#EFF0F0" transform="translate(872.98828125,264.8828125)"/>
<path d="M0 0 C4.05003763 1.97276744 7.81155106 4.29696647 11.625 6.6875 C12.33269531 7.13013184 13.04039062 7.57276367 13.76953125 8.02880859 C19.30445575 11.51334098 24.70639015 15.15704285 30 19 C29.34 19.33 28.68 19.66 28 20 C25.75 18.77734375 25.75 18.77734375 23 16.9375 C21.53046875 15.97457031 21.53046875 15.97457031 20.03125 14.9921875 C19.0309375 14.33476562 18.030625 13.67734375 17 13 C15.17459862 11.8415722 13.34180387 10.69466767 11.5 9.5625 C10.7059375 9.06878906 9.911875 8.57507813 9.09375 8.06640625 C6.9460751 6.77307447 6.9460751 6.77307447 4 7 C6.27585128 17.99527944 8.83453621 28.91569662 11.44384766 39.83569336 C12.1327658 42.72001338 12.81848458 45.60508168 13.50390625 48.49023438 C13.94252068 50.3307739 14.38131596 52.17127033 14.8203125 54.01171875 C15.02447784 54.87101486 15.22864319 55.73031097 15.43899536 56.61564636 C15.62944427 57.41110367 15.81989319 58.20656097 16.01611328 59.02612305 C16.18249298 59.72335983 16.34887268 60.42059662 16.52029419 61.13896179 C16.94306159 62.77910512 17.46438797 64.39316392 18 66 C28.55630618 63.91435199 38.92110544 61.2397467 49.3203125 58.4921875 C55.53656552 56.85082907 61.77237852 55.29662478 68.015625 53.76171875 C71.02367599 53.03199054 71.02367599 53.03199054 74 52 C71.39385128 49.18037835 68.42566427 47.04665318 65.3125 44.8125 C64.31863281 44.09707031 63.32476563 43.38164062 62.30078125 42.64453125 C61.54152344 42.10183594 60.78226563 41.55914062 60 41 C63.39500401 41 64.24766279 41.57740094 67.01171875 43.40625 C67.76904297 43.90253906 68.52636719 44.39882813 69.30664062 44.91015625 C70.09232422 45.43480469 70.87800781 45.95945312 71.6875 46.5 C72.48478516 47.02464844 73.28207031 47.54929687 74.10351562 48.08984375 C76.07311871 49.3871871 78.03831249 50.69073108 80 52 C77.78451728 54.21548272 76.92425599 54.42779378 73.94921875 55.078125 C73.11608154 55.26640869 72.28294434 55.45469238 71.42456055 55.64868164 C70.52133057 55.8471167 69.61810059 56.04555176 68.6875 56.25 C61.1177485 57.97689238 53.63995653 59.8841533 46.1875 62.0625 C39.79222592 63.92391776 33.39447026 65.73847523 26.9375 67.375 C25.06384766 67.85066406 25.06384766 67.85066406 23.15234375 68.3359375 C20 69 20 69 16 69 C15.83508057 68.31526611 15.67016113 67.63053223 15.50024414 66.92504883 C14.68807737 63.55409919 13.87525806 60.18330712 13.0625 56.8125 C12.75691162 55.5435791 12.45132324 54.2746582 12.13647461 52.96728516 C10.28537563 45.28769031 8.41663032 37.61265868 6.53125 29.94140625 C5.9119779 27.41609578 5.29297037 24.8907206 4.67404175 22.36532593 C4.26653199 20.70586093 3.85778044 19.04670038 3.44778442 17.3878479 C2.86966509 15.04837153 2.29575485 12.70789803 1.72265625 10.3671875 C1.54798828 9.665298 1.37332031 8.96340851 1.19335938 8.24024963 C0.50369661 5.40905462 0 2.92725538 0 0 Z " fill="#EAEBEA" transform="translate(724,387)"/>
<path d="M0 0 C1.36125 0.9590625 1.36125 0.9590625 2.75 1.9375 C3.36101563 2.36675781 3.97203125 2.79601562 4.6015625 3.23828125 C10.90109715 8.13927056 15.34858175 14.76641879 18.75 21.9375 C18.255 23.4225 18.255 23.4225 17.75 24.9375 C17.23050781 24.05707031 16.71101562 23.17664063 16.17578125 22.26953125 C15.47173709 21.09612432 14.76728832 19.9229601 14.0625 18.75 C13.72283203 18.17185547 13.38316406 17.59371094 13.03320312 16.99804688 C8.91521876 10.18605404 3.46436503 4.50895501 -4.25 1.9375 C-17.66667195 0.55503887 -28.55823174 6.04635478 -38.88574219 14.234375 C-42.74334739 17.38959028 -46.50002504 20.65565595 -50.25 23.9375 C-51.68603044 25.16838323 -53.12319069 26.39795247 -54.5625 27.625 C-55.449375 28.388125 -56.33625 29.15125 -57.25 29.9375 C-55.73099978 33.5616364 -53.56929546 35.795124 -50.75 38.5 C-48.22190847 40.9336985 -46.20327066 43.00759401 -44.25 45.9375 C-40.14467468 45.40655723 -38.2126229 43.26348442 -35.3125 40.4375 C-31.19867838 36.6049182 -27.03408873 33.11324931 -22.4375 29.875 C-21.39980469 29.14152344 -20.36210938 28.40804688 -19.29296875 27.65234375 C-16.11994686 25.86420946 -13.87938484 25.10038964 -10.25 24.9375 C-6.12950319 28.02787261 -4.51393241 30.99667332 -3.25 35.9375 C-5.07797873 34.27570116 -6.16987569 33.14705589 -7.0625 30.8125 C-8.15903192 28.66274162 -8.15903192 28.66274162 -10.9375 27.9375 C-18.92535772 27.9375 -25.41304752 35.10392448 -31.25 39.9375 C-31.85457031 40.42863281 -32.45914063 40.91976562 -33.08203125 41.42578125 C-35.35161447 43.28166829 -37.38616403 45.09429494 -39.3125 47.3125 C-39.951875 47.84875 -40.59125 48.385 -41.25 48.9375 C-44 48.6875 -44 48.6875 -46.25 47.9375 C-46.353125 47.298125 -46.45625 46.65875 -46.5625 46 C-46.789375 45.319375 -47.01625 44.63875 -47.25 43.9375 C-48.24 43.6075 -49.23 43.2775 -50.25 42.9375 C-51.75 41.4140625 -51.75 41.4140625 -53.25 39.5625 C-54.76042413 37.7138038 -56.17601213 36.00369967 -57.95703125 34.41015625 C-58.38371094 33.92417969 -58.81039062 33.43820312 -59.25 32.9375 C-58.9375 29.75 -58.9375 29.75 -58.25 26.9375 C-56.93 26.6075 -55.61 26.2775 -54.25 25.9375 C-54.25 25.2775 -54.25 24.6175 -54.25 23.9375 C-52.09754586 22.11045155 -49.93639683 20.38832731 -47.6875 18.6875 C-46.3935201 17.69402394 -45.10053931 16.69924513 -43.80859375 15.703125 C-43.18839355 15.22552734 -42.56819336 14.74792969 -41.92919922 14.25585938 C-39.9713008 12.71868993 -38.10186469 11.10039891 -36.25 9.4375 C-33.26034877 6.94612397 -30.8095995 5.48223186 -27.25 3.9375 C-25.95255859 3.29941406 -25.95255859 3.29941406 -24.62890625 2.6484375 C-16.41227187 -1.17673169 -8.81485915 -2.88178088 0 0 Z " fill="#ECECEC" transform="translate(608.25,242.0625)"/>
<path d="M0 0 C0.33 0 0.66 0 1 0 C0.99476318 0.70793701 0.98952637 1.41587402 0.98413086 2.14526367 C0.80113762 30.82424278 1.73056567 57.59275359 9.75 85.3125 C12.92079189 96.4703088 16.10739485 108.75223672 11.84765625 120.05859375 C9.13719626 124.55206191 6.07887156 127.40662853 1 129 C-6.2111817 130.68404842 -12.83531371 129.46688163 -20 128 C-20 127.67 -20 127.34 -20 127 C-18.04707031 127.05220703 -18.04707031 127.05220703 -16.0546875 127.10546875 C-14.32813796 127.13361901 -12.60157439 127.16091784 -10.875 127.1875 C-10.0190625 127.21263672 -9.163125 127.23777344 -8.28125 127.26367188 C-3.07459573 127.32374865 0.50372604 126.93265473 5 124 C11.44613884 116.85698129 10.71432971 109.13649216 10.28710938 99.94970703 C9.51117721 91.97792773 6.93173555 84.30290149 4.72216797 76.63574219 C3.23559434 71.21010025 2.23209135 65.67999872 1.34887695 60.12646484 C1.08589429 58.52354041 0.79274973 56.92552184 0.48510742 55.33056641 C-1.1414834 46.24498739 -1.27433101 37.36443765 -1.20581055 28.16845703 C-1.18737976 25.60829828 -1.18530281 23.04849997 -1.18554688 20.48828125 C-1.1806358 18.83853857 -1.17480927 17.18879831 -1.16796875 15.5390625 C-1.16685593 14.78476959 -1.1657431 14.03047668 -1.16459656 13.25332642 C-1.12452351 8.74155046 -0.73483283 4.45297697 0 0 Z " fill="#ECEDED" transform="translate(722,644)"/>
<path d="M0 0 C4.46449424 3.56188997 5.61388175 7.80772227 7.25 13.0625 C7.518125 13.87783203 7.78625 14.69316406 8.0625 15.53320312 C10 21.54834981 10 21.54834981 10 25 C9.25951416 25.24645264 8.51902832 25.49290527 7.75610352 25.74682617 C4.35509629 26.88456651 0.95884433 28.03591845 -2.4375 29.1875 C-3.60216797 29.57486328 -4.76683594 29.96222656 -5.96679688 30.36132812 C-17.85238293 33.77375582 -17.85238293 33.77375582 -26.375 41.75 C-25.25235323 51.47960534 -17.38979415 58.2121531 -11 65 C-9.29331668 66.97216739 -7.64266933 68.97404115 -6 71 C-6.33 71.66 -6.66 72.32 -7 73 C-12.22078421 68.11970172 -16.98715225 63.00800365 -21.375 57.375 C-21.79120605 56.84946533 -22.20741211 56.32393066 -22.63623047 55.7824707 C-25.8970918 51.51096797 -29 46.82997107 -29 41.3125 C-26.23621323 34.9212431 -17.95690836 32.27957701 -11.94433594 29.76123047 C2.77100706 24 2.77100706 24 8 24 C5.69 17.4 3.38 10.8 1 4 C-12.15063224 5.8264767 -23.99311419 10.63077867 -35.64453125 16.8984375 C-38 18 -38 18 -41 18 C-38.95542496 15.77848681 -37.15031937 14.40691785 -34.40234375 13.16796875 C-33.3359668 12.68662476 -33.3359668 12.68662476 -32.24804688 12.19555664 C-31.48556641 11.86289795 -30.72308594 11.53023926 -29.9375 11.1875 C-28.75704102 10.66627563 -28.75704102 10.66627563 -27.55273438 10.13452148 C-20.34268152 7.01907537 -12.98196601 4.50189581 -5.5 2.12890625 C-2.19353332 1.15970734 -2.19353332 1.15970734 0 0 Z " fill="#EBECEB" transform="translate(678,197)"/>
<path d="M0 0 C2.75423863 2.37006372 3.29887313 5.36214539 4.1953125 8.75390625 C4.61376342 10.201895 5.03707527 11.64848645 5.46484375 13.09375 C5.68350098 13.83351074 5.9021582 14.57327148 6.12744141 15.33544922 C7.23092061 18.88851227 8.52411395 22.35409727 9.8828125 25.81640625 C10.58083984 27.61851562 10.58083984 27.61851562 11.29296875 29.45703125 C12.81209103 32.54966893 14.13953551 34.4238955 16.8203125 36.56640625 C26.10115272 36.99807324 34.43541022 27.48895679 40.859375 21.70581055 C44.0313041 18.89493956 46.68841823 16.84014809 50.8203125 15.56640625 C54.54386519 19.23550113 58.1146501 23.01315504 61.6328125 26.87890625 C62.13490234 27.42869141 62.63699219 27.97847656 63.15429688 28.54492188 C64.37735218 29.88445864 65.59898258 31.22529617 66.8203125 32.56640625 C62.99936577 41.97845583 50.86934396 48.99280226 42.8203125 54.56640625 C41.8303125 54.07140625 41.8303125 54.07140625 40.8203125 53.56640625 C41.72652344 52.86515625 42.63273438 52.16390625 43.56640625 51.44140625 C50.52506787 46.03070742 57.33870111 40.55075116 63.8203125 34.56640625 C62.45138313 31.46937297 60.89913891 29.44879017 58.4453125 27.12890625 C55.65885977 24.42971196 53.16797869 21.66532562 50.8203125 18.56640625 C47.27056511 19.53451917 45.2634827 20.99686254 42.8203125 23.62890625 C36.48759326 30.2678229 28.17451802 35.83241906 19.8203125 39.56640625 C17.1953125 39.56640625 17.1953125 39.56640625 14.8203125 38.56640625 C8.30055622 32.04664997 5.71884107 22.7735482 3.0703125 14.19140625 C2.75449219 13.19496094 2.43867187 12.19851562 2.11328125 11.171875 C-0.1796875 3.8562128 -0.1796875 3.8562128 -0.1796875 1.56640625 C-0.79457031 1.79457031 -1.40945313 2.02273437 -2.04296875 2.2578125 C-2.85121094 2.54527344 -3.65945313 2.83273438 -4.4921875 3.12890625 C-5.69294922 3.56396484 -5.69294922 3.56396484 -6.91796875 4.0078125 C-9.1796875 4.56640625 -9.1796875 4.56640625 -12.1796875 3.56640625 C-10.6049581 2.83914573 -9.01944471 2.13520203 -7.4296875 1.44140625 C-6.54796875 1.04695312 -5.66625 0.6525 -4.7578125 0.24609375 C-2.1796875 -0.43359375 -2.1796875 -0.43359375 0 0 Z " fill="#EFEFEF" transform="translate(604.1796875,147.43359375)"/>
<path d="M0 0 C0.33 0 0.66 0 1 0 C1.01458252 0.66942627 1.02916504 1.33885254 1.04418945 2.02856445 C1.11962925 5.12372874 1.21596527 8.21792455 1.3125 11.3125 C1.34633789 12.8912793 1.34633789 12.8912793 1.38085938 14.50195312 C1.72149907 24.56630778 3.1337668 35.15287634 10 43 C19.68736837 51.75244781 33.13215769 52.93158278 45.66796875 53.17578125 C46.89193359 53.19962891 48.11589844 53.22347656 49.37695312 53.24804688 C51.8976196 53.29068244 54.41850295 53.3221122 56.93945312 53.34179688 C68.65232315 53.60562789 80.38372463 55.44078606 89 64 C93.76025642 69.2891738 98.30697319 75.36561624 101 82 C100.67 82.66 100.34 83.32 100 84 C94.37251656 75.64072848 94.37251656 75.64072848 92.4375 72.3125 C87.2185015 63.91671981 81.42713351 60.11578012 72.07421875 57.61328125 C62.54619147 55.7125185 52.89705452 55.72273329 43.21289062 55.5703125 C31.31329991 55.24706386 18.13806877 53.39732578 8.9296875 45.14453125 C1.98160727 37.62955744 -0.1480188 29.8997977 -0.09765625 19.7265625 C-0.09443359 18.57285156 -0.09121094 17.41914062 -0.08789062 16.23046875 C-0.07951172 15.04066406 -0.07113281 13.85085938 -0.0625 12.625 C-0.05798828 11.41199219 -0.05347656 10.19898438 -0.04882812 8.94921875 C-0.03708354 5.96609493 -0.0206584 2.98307321 0 0 Z " fill="#EFEFEF" transform="translate(412,608)"/>
<path d="M0 0 C4.7325415 4.7750812 6.19200584 10.69339061 8.1875 16.9375 C8.57333252 18.11449463 8.95916504 19.29148926 9.35668945 20.50415039 C11.4606509 26.9855785 13.46112628 33.49129249 15.375 40.03125 C15.56975418 40.69371231 15.76450836 41.35617462 15.96516418 42.03871155 C16.90381933 45.23683899 17.82788404 48.43728296 18.72924805 51.64624023 C23.49907457 68.13253824 29.52449894 78.23864272 44.2890625 87.06640625 C50.52742646 90.4714707 57.28710133 92.72502535 64 95 C64 95.33 64 95.66 64 96 C52.32711248 96.70637746 41.69935769 88.98777674 33 82 C31.71802734 81.05640625 31.71802734 81.05640625 30.41015625 80.09375 C19.08163748 70.25244358 15.94360028 52.08414838 12.23242188 38.18847656 C9.21643061 26.94247315 5.64956018 16.04762477 0.91796875 5.390625 C0 3 0 3 0 0 Z " fill="#E6E7E7" transform="translate(638,675)"/>
<path d="M0 0 C0 0.99 0 1.98 0 3 C-0.99 3.33 -1.98 3.66 -3 4 C-3.268125 4.55171875 -3.53625 5.1034375 -3.8125 5.671875 C-5.57756654 9.1323344 -8.25213298 11.54101789 -11 14.25 C-11.5465625 14.80429687 -12.093125 15.35859375 -12.65625 15.9296875 C-16.7466133 20 -16.7466133 20 -19 20 C-19.66 21.32 -20.32 22.64 -21 24 C-21.66 24 -22.32 24 -23 24 C-22.67 25.65 -22.34 27.3 -22 29 C-21.40574219 29.19634033 -20.81148437 29.39268066 -20.19921875 29.5949707 C-17.46560209 30.49917925 -14.73279909 31.40582366 -12 32.3125 C-11.06542969 32.62123047 -10.13085938 32.92996094 -9.16796875 33.24804688 C-4.92567179 34.65720146 -0.70606242 36.0882775 3.46875 37.6875 C6.69135835 38.88528363 9.59915023 39.57489378 13 40 C13.06058594 39.27554688 13.12117187 38.55109375 13.18359375 37.8046875 C13.61483433 32.82883467 14.07047641 27.91319609 15 23 C15.33 23 15.66 23 16 23 C15.85845864 25.56280208 15.71191438 28.12515485 15.5625 30.6875 C15.52318359 31.40873047 15.48386719 32.12996094 15.44335938 32.87304688 C15.40146484 33.57880859 15.35957031 34.28457031 15.31640625 35.01171875 C15.27974854 35.65584717 15.24309082 36.29997559 15.20532227 36.96362305 C14.96467724 39.35032958 14.5002749 41.65529521 14 44 C5.7680808 41.662512 -2.2639989 38.83698624 -10.3125 35.9375 C-11.57349115 35.48611419 -12.83455847 35.03494111 -14.09570312 34.58398438 C-19.09413055 32.79098279 -24.08039516 31.00099245 -29 29 C-23.72909055 22.58943445 -17.90080045 16.82349739 -12 11 C-11.14148438 10.13246094 -10.28296875 9.26492188 -9.3984375 8.37109375 C-7.38591131 6.38151167 -5.34944197 4.51031382 -3.1875 2.6875 C-2.58292969 2.17574219 -1.97835937 1.66398437 -1.35546875 1.13671875 C-0.68451172 0.57404297 -0.68451172 0.57404297 0 0 Z " fill="#E6E7E6" transform="translate(867,411)"/>
<path d="M0 0 C3.29233952 0.70247861 6.38123046 1.85059924 9.53295898 3.01855469 C18.89075224 6.46688825 28.25611342 8.92211114 38 11 C38.85335937 11.20367187 39.70671875 11.40734375 40.5859375 11.6171875 C57.24419316 15.41643879 74.76092479 15.36087834 91.75 15.625 C93.82683672 15.66332162 95.90365997 15.70238064 97.98046875 15.7421875 C102.98686547 15.83658335 107.99333532 15.92114984 113 16 C113 16.33 113 16.66 113 17 C75.9451846 20.93810445 33.48086079 18.72516159 0 1 C0 0.67 0 0.34 0 0 Z " fill="#F2F3F2" transform="translate(72,491)"/>
<path d="M0 0 C0.66 0.33 1.32 0.66 2 1 C1.54109375 1.42410156 1.0821875 1.84820312 0.609375 2.28515625 C-5.50683867 8.13153696 -9.16820802 12.49208083 -9.5625 21.125 C-8.89122536 40.61434044 5.94411109 55.08935894 18 69 C21.46693687 68.40808395 23.24590819 67.18045537 25.8125 64.8125 C26.49957031 64.18859375 27.18664062 63.5646875 27.89453125 62.921875 C28.58933594 62.28765625 29.28414062 61.6534375 30 61 C31.32878084 59.84889042 32.66175203 58.70258955 34 57.5625 C34.99 56.716875 35.98 55.87125 37 55 C37 58 37 58 35.77832031 59.51806641 C35.21725586 60.04062012 34.65619141 60.56317383 34.078125 61.1015625 C33.46453125 61.67390625 32.8509375 62.24625 32.21875 62.8359375 C31.24421875 63.72152344 31.24421875 63.72152344 30.25 64.625 C29.61578125 65.223125 28.9815625 65.82125 28.328125 66.4375 C22.84847647 71.48334302 22.84847647 71.48334302 19 72 C13.25559755 68.65714395 9.01369698 62.8009371 5.01953125 57.6171875 C3.65350677 55.84690432 2.25368348 54.10227636 0.82421875 52.3828125 C-3.00809682 47.77282411 -6.01922213 43.73383069 -8 38 C-8.26425781 37.30261719 -8.52851562 36.60523438 -8.80078125 35.88671875 C-12.07908636 26.89080094 -13.06270941 19.04862787 -9.18359375 10.12109375 C-6.87997084 5.65842677 -3.99906372 2.99929779 0 0 Z " fill="#EBECEB" transform="translate(635,216)"/>
<path d="M0 0 C-0.886875 0.495 -1.77375 0.99 -2.6875 1.5 C-7.48621787 4.67261205 -10.21112899 9.63338698 -12 15 C-13.289459 26.77091858 -9.94609141 35.65174972 -2.625 44.8125 C-1.1033932 46.55934465 0.4368125 48.29026367 2 50 C2.5775 50.64710938 3.155 51.29421875 3.75 51.9609375 C10.1640065 58.7758194 18.18336818 63.92975233 26 69 C25.01 69.495 25.01 69.495 24 70 C16.83054291 66.89931504 11.14447296 61.67910139 5.54296875 56.3671875 C3.07522958 53.98798498 3.07522958 53.98798498 0.46484375 52.08984375 C-2.44840514 49.61981497 -4.50900562 46.82865717 -6.625 43.6875 C-7.0065625 43.14416016 -7.388125 42.60082031 -7.78125 42.04101562 C-13.53677679 33.63596184 -16.3596154 24.56215838 -14.52734375 14.37109375 C-12.76862374 8.69129307 -10.25889632 3.707946 -5.4375 0.0625 C-3 -1 -3 -1 0 0 Z " fill="#ECEDEC" transform="translate(46,421)"/>
<path d="M0 0 C25.75517002 -0.45212983 48.33066288 0.89061152 73 9 C73 9.66 73 10.32 73 11 C68.64763439 10.05039296 64.30301463 9.07596018 59.96875 8.046875 C59.24486084 7.87510742 58.52097168 7.70333984 57.77514648 7.52636719 C56.33939343 7.18481543 54.90398671 6.84180322 53.46899414 6.49707031 C52.04688096 6.15885954 50.6228616 5.82858701 49.19726562 5.50537109 C47.76868591 5.17679776 46.344841 4.82663913 44.92773438 4.45166016 C35.90831199 2.28345403 26.59833589 2.53906156 17.375 2.375 C15.58982619 2.33674859 13.80466942 2.2976929 12.01953125 2.2578125 C7.67982855 2.16259552 3.34003981 2.07828492 -1 2 C-0.67 1.34 -0.34 0.68 0 0 Z " fill="#E1E1E1" transform="translate(478,340)"/>
<path d="M0 0 C0.66 0 1.32 0 2 0 C1.39365008 3.24912034 0.62761855 6.35199336 -0.375 9.5 C-3.97793222 21.41827466 -5.78390302 33.22555347 -7.0625 45.5625 C-7.38211287 48.58514298 -7.70655014 51.60722799 -8.03515625 54.62890625 C-8.11311432 55.34873688 -8.19107239 56.0685675 -8.27139282 56.81021118 C-8.95100536 62.91411752 -9.8908849 68.95887806 -11 75 C-11.33 75 -11.66 75 -12 75 C-11.07577355 50.33271479 -9.89783469 22.95455279 0 0 Z " fill="#E1E2E1" transform="translate(733,576)"/>
<path d="M0 0 C3.81936528 1.55603771 6.26044438 3.95604931 9 7 C9 7.66 9 8.32 9 9 C9.56847656 9.24492188 10.13695312 9.48984375 10.72265625 9.7421875 C18.53386624 14.0564407 25.18892361 22.56677082 28 31 C28.08722452 32.61095858 28.11767272 34.22531016 28.11352539 35.83862305 C28.11344986 36.8194133 28.11337433 37.80020355 28.11329651 38.81071472 C28.10813522 39.86704605 28.10297394 40.92337738 28.09765625 42.01171875 C28.0962413 43.09508011 28.09482635 44.17844147 28.09336853 45.29463196 C28.08776559 48.75894925 28.07521258 52.2232022 28.0625 55.6875 C28.05748538 58.03450428 28.05292241 60.38150956 28.04882812 62.72851562 C28.03779521 68.48569908 28.0210542 74.24284494 28 80 C27.67 80 27.34 80 27 80 C26.99635437 79.44591461 26.99270874 78.89182922 26.98895264 78.32095337 C26.94688245 72.51221973 26.87736844 66.70425832 26.79248047 60.89599609 C26.7643937 58.73331455 26.74311852 56.5705327 26.72900391 54.40771484 C26.70740362 51.28431293 26.66066607 48.16210157 26.609375 45.0390625 C26.60814636 44.08448151 26.60691772 43.12990051 26.60565186 42.14639282 C26.42004837 33.48492824 24.17205691 25.34840139 18 19 C16.15466741 17.40974579 14.29640376 15.84944753 12.390625 14.33203125 C11.93171875 13.89246094 11.4728125 13.45289063 11 13 C11 12.34 11 11.68 11 11 C9.68 10.34 8.36 9.68 7 9 C7 8.34 7 7.68 7 7 C6.401875 6.731875 5.80375 6.46375 5.1875 6.1875 C3.00152146 5.00082594 1.58667406 3.90400887 0 2 C0 1.34 0 0.68 0 0 Z " fill="#D6D7D7" transform="translate(386,552)"/>
<path d="M0 0 C7.69000648 5.62683401 14.65674846 14.55239259 16.625 24 C15.81178352 27.90343909 14.33549429 29.18609879 11.22265625 31.5625 C2.8274188 36.99210875 -10.77356413 43 -21 43 C-20.67 44.98 -20.34 46.96 -20 49 C-22 46 -22 46 -22 42 C-17.88100685 40.41793218 -13.77062639 38.89831717 -9.5625 37.5703125 C-8.81226563 37.33183594 -8.06203125 37.09335938 -7.2890625 36.84765625 C-5.76524714 36.36658826 -4.23917862 35.89259893 -2.7109375 35.42578125 C2.60639617 33.71729088 7.66124767 31.59810553 12 28 C13.48598795 24.39117213 13.44995459 22.33001282 12.203125 18.64453125 C9.57104165 12.83051152 5.98955871 8.38290735 1.57421875 3.8125 C0 2 0 2 0 0 Z " fill="#EBECEC" transform="translate(553,190)"/>
<path d="M0 0 C3.92256453 4.74174586 5.34513797 10.23098927 7.25 16 C7.62640625 17.093125 8.0028125 18.18625 8.390625 19.3125 C8.74125 20.364375 9.091875 21.41625 9.453125 22.5 C9.77442383 23.4590625 10.09572266 24.418125 10.42675781 25.40625 C11.02330503 28.1054483 11.07643056 29.47186951 10 32 C3.60407693 36.03953036 -5.34637411 39.82741902 -13 39 C-13.67756882 37.44219668 -14.34159457 35.87849904 -15 34.3125 C-15.37125 33.44238281 -15.7425 32.57226562 -16.125 31.67578125 C-17.01870488 28.9427998 -17.16449676 26.85299066 -17 24 C-15.20999229 26.68501157 -14.3782523 28.60080152 -13.4375 31.625 C-12.661214 34.57168552 -12.661214 34.57168552 -11 37 C-9.80761719 36.566875 -8.61523438 36.13375 -7.38671875 35.6875 C-5.8204018 35.12475139 -4.25399061 34.56226502 -2.6875 34 C-1.50897461 33.57074219 -1.50897461 33.57074219 -0.30664062 33.1328125 C0.45068359 32.86210937 1.20800781 32.59140625 1.98828125 32.3125 C2.68477783 32.06113281 3.38127441 31.80976563 4.09887695 31.55078125 C6 31 6 31 9 31 C8.06722726 27.83192178 7.12790839 24.66581927 6.1875 21.5 C5.79594727 20.1696875 5.79594727 20.1696875 5.39648438 18.8125 C4.1593991 14.65833711 2.87411979 10.57142797 1.30078125 6.53125 C0 3 0 3 0 0 Z " fill="#E7E8E8" transform="translate(627,267)"/>
<path d="M0 0 C-2.22200598 2.22200598 -3.15315293 2.43698269 -6.125 3.1875 C-16.41390316 6.14425301 -26.65173038 10.48083922 -35.30078125 16.8359375 C-37 18 -37 18 -40 19 C-40 19.66 -40 20.32 -40 21 C-41.18231867 22.14853813 -42.36618239 23.29553732 -43.55859375 24.43359375 C-46.6582493 27.80205411 -48.95897627 31.91795254 -51 36 C-51.66 36 -52.32 36 -53 36 C-50.70928959 26.07358821 -42.11249158 17.89429148 -33.75097656 12.56713867 C-31.423012 11.25475729 -29.07262214 10.01774147 -26.6875 8.8125 C-25.85516846 8.38469238 -25.02283691 7.95688477 -24.1652832 7.51611328 C-7.67693641 -0.82993907 -7.67693641 -0.82993907 0 0 Z " fill="#ECEDED" transform="translate(787,540)"/>
<path d="M0 0 C0.99 0.33 1.98 0.66 3 1 C3 9.58 3 18.16 3 27 C-2.22665027 20.03113297 -2.78129468 13.53679332 -2 5 C-0.984375 2.12890625 -0.984375 2.12890625 0 0 Z " fill="#2B2F31" transform="translate(35,431)"/>
<path d="M0 0 C2.38125464 2.38125464 3.00186241 4.33857567 4.125 7.5 C4.47820313 8.4796875 4.83140625 9.459375 5.1953125 10.46875 C6 13 6 13 6 15 C13.17158399 13.27289835 20.15259361 11.01603718 27.125 8.625 C27.9593457 8.34519287 28.79369141 8.06538574 29.65332031 7.77709961 C34.86167956 5.96422545 39.47727349 3.75172168 44.18310547 0.86865234 C44.78268066 0.58199707 45.38225586 0.2953418 46 0 C46.66 0.33 47.32 0.66 48 1 C46.60823368 1.96423026 45.2113777 2.92111602 43.8125 3.875 C42.64654297 4.67550781 42.64654297 4.67550781 41.45703125 5.4921875 C39.0207138 6.98728851 36.67708454 8.01347696 34 9 C32.906875 9.433125 31.81375 9.86625 30.6875 10.3125 C26.43564615 11.89269089 22.13063747 13.30122004 17.8125 14.6875 C17.12309326 14.9141333 16.43368652 15.1407666 15.72338867 15.37426758 C12.04725972 16.53643887 8.86113052 17.27740161 5 17 C4.15838146 14.91999989 3.32699237 12.83585854 2.5 10.75 C2.0359375 9.58984375 1.571875 8.4296875 1.09375 7.234375 C0 4 0 4 0 0 Z " fill="#ECEDEC" transform="translate(533,239)"/>
<path d="M0 0 C0 0.33 0 0.66 0 1 C4.62 1.66 9.24 2.32 14 3 C14 3.33 14 3.66 14 4 C-1.18 4 -16.36 4 -32 4 C-32 3.67 -32 3.34 -32 3 C-27.98000981 2.49306328 -23.95889046 1.9956961 -19.9375 1.5 C-18.80376953 1.35691406 -17.67003906 1.21382813 -16.50195312 1.06640625 C-10.96234446 0.38808682 -5.58198572 -0.19443782 0 0 Z " fill="#1B1F22" transform="translate(201,444)"/>
<path d="M0 0 C3.19431904 0.16206856 4.64559917 0.67576095 7.01953125 2.84765625 C7.61121094 3.57855469 8.20289063 4.30945313 8.8125 5.0625 C9.41707031 5.79597656 10.02164063 6.52945313 10.64453125 7.28515625 C11.09183594 7.85105469 11.53914062 8.41695312 12 9 C11.67 9.66 11.34 10.32 11 11 C10.61328125 10.50628906 10.2265625 10.01257813 9.828125 9.50390625 C9.30734375 8.86324219 8.7865625 8.22257813 8.25 7.5625 C7.73953125 6.92441406 7.2290625 6.28632813 6.703125 5.62890625 C4.65508948 3.67011999 3.86264924 2.93843765 1 3 C-1.25586932 4.66048737 -3.13390964 6.25212142 -5.125 8.1875 C-5.66253906 8.68314453 -6.20007813 9.17878906 -6.75390625 9.68945312 C-9.45160169 12.23578162 -11.65061355 14.50992024 -13 18 C-11.68 19.65 -10.36 21.3 -9 23 C-12 23 -12 23 -14.25 21.3125 C-16 19 -16 19 -16.01171875 16.7421875 C-14.52409611 12.71009834 -11.76222028 10.58102803 -8.5625 7.8125 C-7.37628677 6.75652762 -6.19008824 5.70053873 -5.00390625 4.64453125 C-4.21222046 3.95387573 -4.21222046 3.95387573 -3.40454102 3.24926758 C-2.23237267 2.20668363 -1.10927001 1.10927001 0 0 Z " fill="#E8E9E8" transform="translate(562,166)"/>
<path d="M0 0 C0.66 0.33 1.32 0.66 2 1 C1.67 3.64 1.34 6.28 1 9 C-1.64 9 -4.28 9 -7 9 C-7 10.98 -7 12.96 -7 15 C-8.32 15.33 -9.64 15.66 -11 16 C-11.765625 14.3203125 -11.765625 14.3203125 -12 12 C-10.234375 9.4921875 -10.234375 9.4921875 -7.75 6.875 C-6.94046875 6.00617188 -6.1309375 5.13734375 -5.296875 4.2421875 C-3 2 -3 2 0 0 Z " fill="#1F2325" transform="translate(639,215)"/>
<path d="M0 0 C1.44246094 -0.02126953 1.44246094 -0.02126953 2.9140625 -0.04296875 C5.375 0.1875 5.375 0.1875 7.375 2.1875 C6.38671875 3.67578125 6.38671875 3.67578125 4.375 5.1875 C1.56372957 5.40464241 -1.0133345 5.47034276 -3.8125 5.375 C-4.56208984 5.36146484 -5.31167969 5.34792969 -6.08398438 5.33398438 C-7.93129767 5.29868539 -9.77824066 5.24487917 -11.625 5.1875 C-10.875 3.25 -10.875 3.25 -9.625 1.1875 C-6.54091077 -0.09640499 -3.30873053 0.02229603 0 0 Z " fill="#222527" transform="translate(598.625,242.8125)"/>
<path d="M0 0 C2.31 0 4.62 0 7 0 C8.74280318 3.79154481 9.27855115 6.85556747 9.37890625 11.015625 C9.41250244 12.17739258 9.44609863 13.33916016 9.48071289 14.53613281 C9.50770264 15.76170898 9.53469238 16.98728516 9.5625 18.25 C9.63389774 20.77087681 9.70681213 23.29171113 9.78125 25.8125 C9.81605469 27.03839844 9.85085938 28.26429688 9.88671875 29.52734375 C10.03610865 34.1069168 10.27531362 38.67722566 10.5625 43.25 C10.60640869 43.95157227 10.65031738 44.65314453 10.69555664 45.37597656 C10.7941428 46.91750558 10.89651888 48.45879184 11 50 C10.67 50 10.34 50 10 50 C7.5520847 40.59118138 7.60820209 31.14595336 7.46826172 21.49975586 C7.43442872 19.37852194 7.38939517 17.25772616 7.34375 15.13671875 C7.32505859 13.88592529 7.30636719 12.63513184 7.28710938 11.34643555 C7.00867072 8.10106259 6.53119866 5.86249082 5 3 C2.47627099 1.63921965 2.47627099 1.63921965 0 1 C0 0.67 0 0.34 0 0 Z " fill="#F2F3F3" transform="translate(347,460)"/>
<path d="M0 0 C1.29853064 2.59706128 0.87175317 3.93155893 0.44140625 6.7890625 C0.30283203 7.73007812 0.16425781 8.67109375 0.02148438 9.640625 C-0.12998047 10.62546875 -0.28144531 11.6103125 -0.4375 12.625 C-0.58509766 13.61757813 -0.73269531 14.61015625 -0.88476562 15.6328125 C-1.25089765 18.08944027 -1.62287314 20.54504009 -2 23 C-2.33 23 -2.66 23 -3 23 C-3 18.38 -3 13.76 -3 9 C-7.37826761 10.75130704 -8.80161403 11.4370031 -11.8125 14.625 C-12.41707031 15.25664062 -13.02164063 15.88828125 -13.64453125 16.5390625 C-14.09183594 17.02117187 -14.53914062 17.50328125 -15 18 C-15.66 17.67 -16.32 17.34 -17 17 C-11.39 11.39 -5.78 5.78 0 0 Z " fill="#EDEEED" transform="translate(889,389)"/>
<path d="M0 0 C0.33 0 0.66 0 1 0 C1.34158347 3.6034331 1.67169816 7.20783452 2 10.8125 C2.09539063 11.81732422 2.19078125 12.82214844 2.2890625 13.85742188 C2.89539352 20.59202712 3.12017481 27.23933254 3 34 C2.01 34 1.02 34 0 34 C0 22.78 0 11.56 0 0 Z " fill="#1A1E20" transform="translate(720,594)"/>
<path d="M0 0 C4.79821659 1.62114502 8.6672859 4.29276759 12.8125 7.125 C13.50537109 7.59292969 14.19824219 8.06085938 14.91210938 8.54296875 C16.61091105 9.69112437 18.30584864 10.84499367 20 12 C17.20501276 14.79498724 13.98031746 15.22250384 10.25 16.125 C9.54617188 16.30675781 8.84234375 16.48851562 8.1171875 16.67578125 C3.98934355 17.69623338 0.28569306 18.20215533 -4 18 C-1.35469374 15.35469374 0.79848637 15.21236243 4.4375 14.4375 C7.69888506 13.73420691 10.83444039 13.05518654 14 12 C10.58935692 8.29834642 6.38838012 5.63690732 2.30078125 2.7421875 C1.54152344 2.16726563 0.78226563 1.59234375 0 1 C0 0.67 0 0.34 0 0 Z " fill="#EFF0EF" transform="translate(784,427)"/>
<path d="M0 0 C0.66 0.33 1.32 0.66 2 1 C0.89205078 1.70962891 0.89205078 1.70962891 -0.23828125 2.43359375 C-7.55735194 7.20447464 -14.31961147 12.3544711 -21 18 C-22.11765713 18.93198878 -23.2361773 19.86294338 -24.35546875 20.79296875 C-27.24096285 23.19057333 -30.12164225 25.59383357 -33 28 C-33.66 27.67 -34.32 27.34 -35 27 C-33.625 25.5 -33.625 25.5 -32 24 C-31.34 24 -30.68 24 -30 24 C-29.67 23.01 -29.34 22.02 -29 21 C-27.13671875 19.2734375 -27.13671875 19.2734375 -24.6875 17.375 C-23.78773438 16.67632812 -22.88796875 15.97765625 -21.9609375 15.2578125 C-20.49527344 14.14019531 -20.49527344 14.14019531 -19 13 C-17.98164062 12.21367187 -16.96328125 11.42734375 -15.9140625 10.6171875 C-5.36493563 2.56583878 -5.36493563 2.56583878 0 0 Z " fill="#EEEFEF" transform="translate(844,268)"/>
<path d="M0 0 C0.66 0.33 1.32 0.66 2 1 C1.54109375 1.42410156 1.0821875 1.84820312 0.609375 2.28515625 C-5.47712223 8.10313155 -9.1666377 12.46812116 -9.5625 21.0625 C-9.35877636 28.67999259 -6.92168372 35.04013198 -4 42 C-4.66 42 -5.32 42 -6 42 C-10.76117784 35.47178709 -12.55401615 25.98522988 -11.875 18 C-10.74247751 11.49401976 -7.8004395 7.44040653 -3 3 C-2.401875 2.401875 -1.80375 1.80375 -1.1875 1.1875 C-0.795625 0.795625 -0.40375 0.40375 0 0 Z " fill="#E7E8E8" transform="translate(635,216)"/>
<path d="M0 0 C2.67870748 1.48701944 4.33216371 2.51973545 6.01953125 5.12109375 C6.62168862 8.11630755 6.88920187 11.07138626 7.01953125 14.12109375 C5.75883992 11.60524045 4.51029314 9.08443046 3.26953125 6.55859375 C1.1073156 2.88124889 -0.81952266 1.43102122 -4.98046875 0.12109375 C-11.19409076 -0.63046871 -16.29949945 0.20599739 -22.0703125 2.5625 C-23.98046875 3.12109375 -23.98046875 3.12109375 -26.98046875 2.12109375 C-25.37673565 1.47418453 -23.77246569 0.82860611 -22.16796875 0.18359375 C-20.82798828 -0.35587891 -20.82798828 -0.35587891 -19.4609375 -0.90625 C-12.20422597 -3.75179515 -6.93610682 -3.41488053 0 0 Z " fill="#EAEBEB" transform="translate(872.98046875,264.87890625)"/>
<path d="M0 0 C1 2 1 2 1.31640625 4.76953125 C3.38517185 14.5459264 14.24498577 23.83601831 21 31 C20.67 31.66 20.34 32.32 20 33 C14.72390112 28.06799453 9.95794123 22.90804939 5.5625 17.1875 C5.13791504 16.63682861 4.71333008 16.08615723 4.27587891 15.51879883 C0.46434229 10.47393697 -1.4274688 7.41203199 -1 1 C-0.67 0.67 -0.34 0.34 0 0 Z " fill="#F0F0F0" transform="translate(651,237)"/>
<path d="M0 0 C-6.41839251 2.32461011 -12.79475789 3.93331716 -19.5 5.1875 C-20.82837891 5.45336914 -20.82837891 5.45336914 -22.18359375 5.72460938 C-27.88768466 6.80930801 -33.19493731 7.17108416 -39 7 C-39 6.67 -39 6.34 -39 6 C-31.94976156 4.08695284 -24.92516043 3.08049339 -17.68945312 2.14453125 C-13.70169046 1.60666043 -9.88135576 1.04739133 -6.03515625 -0.15625 C-3 -1 -3 -1 0 0 Z " fill="#F4F5F5" transform="translate(218,439)"/>
<path d="M0 0 C1.32 0 2.64 0 4 0 C4 9.24 4 18.48 4 28 C3.34 28.33 2.68 28.66 2 29 C2 20.09 2 11.18 2 2 C1.34 2 0.68 2 0 2 C0 1.34 0 0.68 0 0 Z " fill="#191D20" transform="translate(36,430)"/>
<path d="M0 0 C5.06416173 6.3852474 4.73458012 13.10537453 4 21 C1.8591158 28.20988356 -2.06272688 32.57614944 -8 37 C-8.66 36.67 -9.32 36.34 -10 36 C-9.278125 35.484375 -8.55625 34.96875 -7.8125 34.4375 C-2.94879523 30.2222892 0.65029304 25.38043289 2 19 C2.41128029 13.07581369 2.30828594 8.50507876 0 3 C0 2.01 0 1.02 0 0 Z " fill="#EFEFEF" transform="translate(591,202)"/>
<path d="M0 0 C0.33 0 0.66 0 1 0 C0.85845864 2.56280208 0.71191438 5.12515485 0.5625 7.6875 C0.52318359 8.40873047 0.48386719 9.12996094 0.44335938 9.87304688 C0.21814322 13.66707282 -0.12839305 17.28651492 -1 21 C-11.55808656 17.92482916 -11.55808656 17.92482916 -16 16 C-16 15.67 -16 15.34 -16 15 C-11.30976546 15.56606279 -6.65499974 16.18537505 -2 17 C-1.93941406 16.27554687 -1.87882813 15.55109375 -1.81640625 14.8046875 C-1.38516567 9.82883467 -0.92952359 4.91319609 0 0 Z " fill="#DDDEDE" transform="translate(882,434)"/>
<path d="M0 0 C-5.31136137 4.03376364 -10.72130639 7.04235262 -16.75 9.875 C-17.59949219 10.29007813 -18.44898438 10.70515625 -19.32421875 11.1328125 C-20.14019531 11.51953125 -20.95617187 11.90625 -21.796875 12.3046875 C-22.90047363 12.8303833 -22.90047363 12.8303833 -24.02636719 13.36669922 C-26 14 -26 14 -29 13 C-27.44152344 12.23816406 -27.44152344 12.23816406 -25.8515625 11.4609375 C-24.44219928 10.76665741 -23.03338139 10.07126963 -21.625 9.375 C-20.89708252 9.01543213 -20.16916504 8.65586426 -19.41918945 8.28540039 C-14.3933204 5.77330082 -9.60608642 3.04017775 -4.91796875 -0.06640625 C-3 -1 -3 -1 0 0 Z " fill="#EDEEEE" transform="translate(878,509)"/>
<path d="M0 0 C1.32 0.99 2.64 1.98 4 3 C0.17905327 12.41204958 -11.95096854 19.42639601 -20 25 C-20.66 24.67 -21.32 24.34 -22 24 C-21.09378906 23.29875 -20.18757812 22.5975 -19.25390625 21.875 C-16.0878977 19.41578687 -12.94056775 16.93402806 -9.8046875 14.43652344 C-8.2179457 13.17348384 -6.62507542 11.91815145 -5.03125 10.6640625 C-4.2165625 9.99117187 -3.401875 9.31828125 -2.5625 8.625 C-1.48162109 7.74714844 -1.48162109 7.74714844 -0.37890625 6.8515625 C1.31176236 5.01644966 1.31176236 5.01644966 0.72265625 2.2734375 C0.48417969 1.52320313 0.24570312 0.77296875 0 0 Z " fill="#F2F2F1" transform="translate(667,177)"/>
<path d="M0 0 C1.08152344 -0.01417969 2.16304687 -0.02835938 3.27734375 -0.04296875 C6.0625 0.1875 6.0625 0.1875 8.0625 2.1875 C3.44052694 4.40604707 0.29425837 5.57031159 -4.9375 5.1875 C-5.5975 3.8675 -6.2575 2.5475 -6.9375 1.1875 C-5.13003866 -0.61996134 -2.43304219 0.01446517 0 0 Z " fill="#232627" transform="translate(546.9375,247.8125)"/>
<path d="M0 0 C0.8125 1.625 0.8125 1.625 1 4 C-2.38077189 8.97172337 -4.95024927 11.13994984 -10.89453125 12.40234375 C-17.47665076 13.45785481 -23.52444504 12.32579044 -30 11 C-30 10.67 -30 10.34 -30 10 C-28.04707031 10.05220703 -28.04707031 10.05220703 -26.0546875 10.10546875 C-24.32813796 10.13361901 -22.60157439 10.16091784 -20.875 10.1875 C-20.0190625 10.21263672 -19.163125 10.23777344 -18.28125 10.26367188 C-13.07459573 10.32374865 -9.49627396 9.93265473 -5 7 C-2.95911288 4.73847644 -1.35925488 2.71850977 0 0 Z " fill="#F2F3F3" transform="translate(732,761)"/>
<path d="M0 0 C5.61 0 11.22 0 17 0 C17.33 0.66 17.66 1.32 18 2 C11.91748904 3.70366626 7.22895086 4.13253652 1 3 C0.67 2.01 0.34 1.02 0 0 Z " fill="#1D2124" transform="translate(94,496)"/>
<path d="M0 0 C2.95839355 -0.02689449 5.91654427 -0.04678741 8.875 -0.0625 C9.71675781 -0.07087891 10.55851563 -0.07925781 11.42578125 -0.08789062 C12.23144531 -0.09111328 13.03710938 -0.09433594 13.8671875 -0.09765625 C14.98262939 -0.10551147 14.98262939 -0.10551147 16.12060547 -0.11352539 C18 0 18 0 20 1 C20 1.66 20 2.32 20 3 C17.79194476 3.0544452 15.58349446 3.09299283 13.375 3.125 C12.14523437 3.14820313 10.91546875 3.17140625 9.6484375 3.1953125 C6.05683959 3.0030428 3.33338825 2.30258556 0 1 C0 0.67 0 0.34 0 0 Z " fill="#36393B" transform="translate(541,712)"/>
<path d="M0 0 C-0.886875 0.495 -1.77375 0.99 -2.6875 1.5 C-10.44283511 6.76777479 -12.21267429 15.28133801 -14 24 C-14.33 24 -14.66 24 -15 24 C-15.52672346 15.7479991 -13.24897347 8.48402605 -8 2 C-3.71641791 -1.23880597 -3.71641791 -1.23880597 0 0 Z " fill="#F3F3F3" transform="translate(46,421)"/>
<path d="M0 0 C6.6930039 4.27656873 10.80969838 9.30612576 15 16 C15.58136719 16.86496094 16.16273438 17.72992188 16.76171875 18.62109375 C17.17035156 19.40613281 17.57898438 20.19117188 18 21 C17.67 21.99 17.34 22.98 17 24 C16.48050781 23.11957031 15.96101562 22.23914063 15.42578125 21.33203125 C14.72173709 20.15862432 14.01728832 18.9854601 13.3125 17.8125 C12.80299805 16.9452832 12.80299805 16.9452832 12.28320312 16.06054688 C9.25568521 11.05240976 5.70052864 6.83521566 0.6875 3.6875 C-0.199375 3.130625 -1.08625 2.57375 -2 2 C-1.34 1.34 -0.68 0.68 0 0 Z " fill="#E6E7E7" transform="translate(609,243)"/>
<path d="M0 0 C0.66 0.33 1.32 0.66 2 1 C2 8.26 2 15.52 2 23 C1.34 23.33 0.68 23.66 0 24 C-0.1958691 20.18788097 -0.38029565 16.37529466 -0.5625 12.5625 C-0.61857422 11.47388672 -0.67464844 10.38527344 -0.73242188 9.26367188 C-0.78076172 8.22919922 -0.82910156 7.19472656 -0.87890625 6.12890625 C-0.9260376 5.17056885 -0.97316895 4.21223145 -1.02172852 3.22485352 C-1 1 -1 1 0 0 Z " fill="#121619" transform="translate(886,425)"/>
<path d="M0 0 C0.66 0.33 1.32 0.66 2 1 C0.60823368 1.96423026 -0.7886223 2.92111602 -2.1875 3.875 C-3.35345703 4.67550781 -3.35345703 4.67550781 -4.54296875 5.4921875 C-6.98124954 6.98849336 -9.32258193 8.00773005 -12 9 C-12.66902344 9.28101563 -13.33804688 9.56203125 -14.02734375 9.8515625 C-18.17965117 11.53286489 -21.44081245 12.34193907 -26 12 C-22.00586536 9.33724357 -17.65308683 7.97235711 -13.15625 6.38671875 C-9.59335425 5.09416446 -6.3611893 3.70170047 -3.109375 1.7421875 C-2.08328125 1.16726562 -1.0571875 0.59234375 0 0 Z " fill="#E4E4E4" transform="translate(579,239)"/>
<path d="M0 0 C2.58532701 0.45064632 2.58532701 0.45064632 5.25 0.625 C6.14203125 0.69976563 7.0340625 0.77453125 7.953125 0.8515625 C8.96632813 0.92503906 8.96632813 0.92503906 10 1 C10 1.33 10 1.66 10 2 C6.72918529 2.02902429 3.4584037 2.04680684 0.1875 2.0625 C-0.74126953 2.07087891 -1.67003906 2.07925781 -2.62695312 2.08789062 C-3.51962891 2.09111328 -4.41230469 2.09433594 -5.33203125 2.09765625 C-6.56530151 2.10551147 -6.56530151 2.10551147 -7.82348633 2.11352539 C-10 2 -10 2 -13 1 C-13 0.34 -13 -0.32 -13 -1 C-11.58566794 -1.2236337 -10.16832382 -1.42826476 -8.75 -1.625 C-7.56664062 -1.79902344 -7.56664062 -1.79902344 -6.359375 -1.9765625 C-3.6214569 -2.00376036 -2.39671659 -1.25366714 0 0 Z " fill="#36383A" transform="translate(461,660)"/>
<path d="M0 0 C0.74886475 0.00523682 1.49772949 0.01047363 2.26928711 0.01586914 C3.07817383 0.0190918 3.88706055 0.02231445 4.72045898 0.02563477 C5.5705957 0.03401367 6.42073242 0.04239258 7.29663086 0.05102539 C8.15063477 0.05553711 9.00463867 0.06004883 9.88452148 0.06469727 C12.00108749 0.07652166 14.11761771 0.0944577 16.23413086 0.11352539 C16.23413086 0.44352539 16.23413086 0.77352539 16.23413086 1.11352539 C11.104939 3.21780923 6.67304736 3.33108205 1.23413086 3.11352539 C1.23413086 3.77352539 1.23413086 4.43352539 1.23413086 5.11352539 C0.57413086 5.11352539 -0.08586914 5.11352539 -0.76586914 5.11352539 C-0.76586914 4.12352539 -0.76586914 3.13352539 -0.76586914 2.11352539 C-1.42586914 1.78352539 -2.08586914 1.45352539 -2.76586914 1.11352539 C-1.76586914 0.11352539 -1.76586914 0.11352539 0 0 Z " fill="#1D2023" transform="translate(446.765869140625,655.886474609375)"/>
<path d="M0 0 C-1.4878147 3.70720679 -3.52405572 5.43386119 -6.6875 7.8125 C-10.62919414 10.85421195 -14.14474217 14.00378824 -17.52734375 17.65234375 C-19 19 -19 19 -22 20 C-22 18 -22 18 -20.671875 16.66015625 C-20.03765625 16.13292969 -19.4034375 15.60570312 -18.75 15.0625 C-16.06723221 12.79320538 -13.43344885 10.49329006 -10.8671875 8.09375 C-10.0632959 7.34339478 -10.0632959 7.34339478 -9.24316406 6.57788086 C-8.17155617 5.5743398 -7.1031417 4.5673769 -6.03808594 3.55688477 C-2.22069869 0 -2.22069869 0 0 0 Z " fill="#E1E2E2" transform="translate(740,267)"/>
<path d="M0 0 C0.33 0.66 0.66 1.32 1 2 C1.66 1.67 2.32 1.34 3 1 C4.99960012 0.960008 7.00047242 0.95653201 9 1 C9.33 1.66 9.66 2.32 10 3 C6.23699626 4.25433458 2.72789091 4.10695422 -1.1875 4.0625 C-1.93708984 4.05798828 -2.68667969 4.05347656 -3.45898438 4.04882812 C-5.30602383 4.03706354 -7.15302213 4.01912865 -9 4 C-9 3.34 -9 2.68 -9 2 C-6.94921875 1.77213542 -4.8984375 1.54427083 -2.84765625 1.31640625 C-0.98859771 1.18113386 -0.98859771 1.18113386 0 0 Z " fill="#1A1E21" transform="translate(537,348)"/>
<path d="M0 0 C0.54398437 0.68835938 1.08796875 1.37671875 1.6484375 2.0859375 C4.73072507 5.90551645 7.91817764 9.63071282 11.109375 13.359375 C13.22238414 15.84187207 15.18932796 18.28399194 17 21 C13.02884831 19.42443866 10.76046833 16.83406651 7.9375 13.6875 C7.08027344 12.74261719 6.22304688 11.79773438 5.33984375 10.82421875 C0 4.37896494 0 4.37896494 0 0 Z " fill="#EAEBEB" transform="translate(370,531)"/>
<path d="M0 0 C0 0.66 0 1.32 0 2 C-0.73605469 2.26554688 -1.47210937 2.53109375 -2.23046875 2.8046875 C-3.69419922 3.33449219 -3.69419922 3.33449219 -5.1875 3.875 C-6.15042969 4.22304688 -7.11335937 4.57109375 -8.10546875 4.9296875 C-9.96260072 5.61640027 -11.80506648 6.34502849 -13.625 7.125 C-16.80190862 8.29544002 -19.64575961 8.13153884 -23 8 C-18.91621047 5.88336698 -14.70808345 4.39448732 -10.375 2.875 C-9.59898437 2.59785156 -8.82296875 2.32070313 -8.0234375 2.03515625 C-2.24880696 0 -2.24880696 0 0 0 Z " fill="#DDDDDE" transform="translate(849,522)"/>
<path d="M0 0 C2.29141286 -0.05384521 4.58318188 -0.09272087 6.875 -0.125 C8.78925781 -0.15980469 8.78925781 -0.15980469 10.7421875 -0.1953125 C14 0 14 0 16 2 C11.969679 3.98937234 9.55274185 4.07167896 5.1875 3.125 C4.21167969 2.92132813 3.23585937 2.71765625 2.23046875 2.5078125 C1.49441406 2.34023438 0.75835937 2.17265625 0 2 C0 1.34 0 0.68 0 0 Z " fill="#1E2122" transform="translate(240,488)"/>
<path d="M0 0 C4.95 0 9.9 0 15 0 C15.33 0.99 15.66 1.98 16 3 C15.236875 2.979375 14.47375 2.95875 13.6875 2.9375 C10.89814214 2.87057159 10.89814214 2.87057159 8 4 C8 3.34 8 2.68 8 2 C5.03 2 2.06 2 -1 2 C-0.67 1.34 -0.34 0.68 0 0 Z " fill="#1B1E20" transform="translate(337,456)"/>
<path d="M0 0 C0.33 0 0.66 0 1 0 C0.70544888 7.65832917 -2.37172342 13.34261178 -6 20 C-6.66 20 -7.32 20 -8 20 C-6.71484276 15.71614255 -4.99140961 11.9236306 -2.953125 7.96875 C-1.70439484 5.38940574 -0.82243411 2.74144703 0 0 Z " fill="#E1E2E2" transform="translate(911,461)"/>
<path d="M0 0 C-0.33 0.99 -0.66 1.98 -1 3 C-4.3 3 -7.6 3 -11 3 C-11.33 2.01 -11.66 1.02 -12 0 C-7.6835078 -0.76173392 -4.25566547 -1.16063604 0 0 Z " fill="#333639" transform="translate(211,443)"/>
<path d="M0 0 C0.99 0.495 0.99 0.495 2 1 C2 3.97 2 6.94 2 10 C2.66 10 3.32 10 4 10 C4 10.99 4 11.98 4 13 C3.34 13 2.68 13 2 13 C2 13.66 2 14.32 2 15 C1.34 15 0.68 15 0 15 C0 10.05 0 5.1 0 0 Z " fill="#191D20" transform="translate(872,311)"/>
<path d="M0 0 C1.0828125 1.11375 1.0828125 1.11375 2.1875 2.25 C4.69012893 4.69701496 7.26449544 6.82562458 10 9 C11.35147138 10.31494512 12.69112542 11.64264858 14 13 C13.67 13.99 13.34 14.98 13 16 C8.33333333 11.33333333 3.66666667 6.66666667 -1 2 C-0.67 1.34 -0.34 0.68 0 0 Z " fill="#F1F2F2" transform="translate(869,352)"/>
<path d="M0 0 C0 0.66 0 1.32 0 2 C-0.99 2.391875 -1.98 2.78375 -3 3.1875 C-6.72753721 4.75898717 -9.96803217 6.83079606 -13.30078125 9.109375 C-13.86152344 9.40328125 -14.42226563 9.6971875 -15 10 C-15.66 9.67 -16.32 9.34 -17 9 C-13.08605897 4.19652692 -6.27464566 0 0 0 Z " fill="#F1F2F2" transform="translate(617,677)"/>
<path d="M0 0 C3.81936528 1.55603771 6.26044438 3.95604931 9 7 C9 7.66 9 8.32 9 9 C9.639375 9.28875 10.27875 9.5775 10.9375 9.875 C13 11 13 11 14 13 C13.01 13 12.02 13 11 13 C11 12.34 11 11.68 11 11 C9.68 10.34 8.36 9.68 7 9 C7 8.34 7 7.68 7 7 C6.401875 6.731875 5.80375 6.46375 5.1875 6.1875 C3.00152146 5.00082594 1.58667406 3.90400887 0 2 C0 1.34 0 0.68 0 0 Z " fill="#DCDDDD" transform="translate(386,552)"/>
<path d="M0 0 C0 0.66 0 1.32 0 2 C0.66 2 1.32 2 2 2 C2.33 3.65 2.66 5.3 3 7 C0.69 6.34 -1.62 5.68 -4 5 C-4 3.68 -4 2.36 -4 1 C-2 0 -2 0 0 0 Z " fill="#2D3032" transform="translate(80,488)"/>
<path d="M0 0 C4.62 0 9.24 0 14 0 C14 0.66 14 1.32 14 2 C12.68 2 11.36 2 10 2 C10 2.66 10 3.32 10 4 C9.34 4 8.68 4 8 4 C8 3.34 8 2.68 8 2 C5.36 2 2.72 2 0 2 C0 1.34 0 0.68 0 0 Z " fill="#1A1E20" transform="translate(289,472)"/>
<path d="M0 0 C0.66 0 1.32 0 2 0 C2 0.99 2 1.98 2 3 C2.66 2.67 3.32 2.34 4 2 C10.47058824 1.64705882 10.47058824 1.64705882 14 4 C8.39 4 2.78 4 -3 4 C-2.67 3.34 -2.34 2.68 -2 2 C-1.34 2 -0.68 2 0 2 C0 1.34 0 0.68 0 0 Z " fill="#161B1D" transform="translate(446,348)"/>
<path d="M0 0 C0.99 0.33 1.98 0.66 3 1 C3 4.63 3 8.26 3 12 C2.01 12.495 2.01 12.495 1 13 C0.14256349 8.60563789 -0.08948558 4.47427924 0 0 Z " fill="#1A1E20" transform="translate(653,706)"/>
<path d="M0 0 C0.66 0 1.32 0 2 0 C1.9278125 0.58007812 1.855625 1.16015625 1.78125 1.7578125 C1.35307672 5.36160427 0.99639257 8.80159119 1.0625 12.4375 C1 15 1 15 -1 17 C-1.02684679 14.35409986 -1.04676357 11.70846904 -1.0625 9.0625 C-1.07087891 8.30775391 -1.07925781 7.55300781 -1.08789062 6.77539062 C-1.09652441 4.85005687 -1.05224333 2.92464419 -1 1 C-0.67 0.67 -0.34 0.34 0 0 Z " fill="#15191B" transform="translate(729,418)"/>
<path d="M0 0 C1.41623216 -0.05447047 2.83308191 -0.09300508 4.25 -0.125 C5.03890625 -0.14820313 5.8278125 -0.17140625 6.640625 -0.1953125 C9.27470815 0.02274074 10.80493031 0.5366202 13 2 C14.25 5.125 14.25 5.125 15 8 C14.34 8 13.68 8 13 8 C12.2265625 6.824375 12.2265625 6.824375 11.4375 5.625 C8.07671959 2.00569802 4.75734807 1.68107333 0 1 C0 0.67 0 0.34 0 0 Z " fill="#F0F1F1" transform="translate(766,251)"/>
<path d="M0 0 C6.93 0.495 6.93 0.495 14 1 C14 1.66 14 2.32 14 3 C9.71 3 5.42 3 1 3 C0.67 2.01 0.34 1.02 0 0 Z " fill="#161A1B" transform="translate(754,453)"/>
<path d="M0 0 C0.66 0 1.32 0 2 0 C2 4.29 2 8.58 2 13 C1.01 12.67 0.02 12.34 -1 12 C-0.67 8.04 -0.34 4.08 0 0 Z " fill="#1A1D20" transform="translate(590,168)"/>
<path d="M0 0 C3.96 0 7.92 0 12 0 C12 0.66 12 1.32 12 2 C10.02 2.99 10.02 2.99 8 4 C8 3.34 8 2.68 8 2 C5.03 2 2.06 2 -1 2 C-0.67 1.34 -0.34 0.68 0 0 Z " fill="#181C1E" transform="translate(833,520)"/>
<path d="M0 0 C4.62 0 9.24 0 14 0 C14 0.99 14 1.98 14 3 C12.22844346 2.88570603 10.45773771 2.75816963 8.6875 2.625 C7.70136719 2.55539062 6.71523437 2.48578125 5.69921875 2.4140625 C3 2 3 2 0 0 Z " fill="#1A1E20" transform="translate(210,496)"/>
<path d="M0 0 C1.98 0 3.96 0 6 0 C6 2.31 6 4.62 6 7 C3.00675737 5.9024777 2.15389099 5.32317108 0.75 2.375 C0.5025 1.59125 0.255 0.8075 0 0 Z " fill="#1C2022" transform="translate(762,408)"/>
<path d="M0 0 C1.32 0.33 2.64 0.66 4 1 C3.67 3.97 3.34 6.94 3 10 C2.67 9.34 2.34 8.68 2 8 C1.34 8 0.68 8 0 8 C0 5.36 0 2.72 0 0 Z " fill="#2F3335" transform="translate(874,313)"/>
<path d="M0 0 C2.0625 1.75 2.0625 1.75 4 4 C3.9375 6.125 3.9375 6.125 3 8 C2.01 8.66 1.02 9.32 0 10 C-1.125 2.25 -1.125 2.25 0 0 Z " fill="#313436" transform="translate(874,268)"/>
<path d="M0 0 C0.33 0 0.66 0 1 0 C1.05389087 1.95803507 1.09274217 3.91648909 1.125 5.875 C1.14820313 6.96554687 1.17140625 8.05609375 1.1953125 9.1796875 C1 12 1 12 -1 14 C-2.05541976 10.83374072 -1.9777654 9.14523064 -1.625 5.875 C-1.53476562 4.98554687 -1.44453125 4.09609375 -1.3515625 3.1796875 C-1 1 -1 1 0 0 Z " fill="#1B1F21" transform="translate(663,728)"/>
<path d="M0 0 C0.66 0 1.32 0 2 0 C2.33 4.29 2.66 8.58 3 13 C2.01 12.67 1.02 12.34 0 12 C0 8.04 0 4.08 0 0 Z " fill="#1A1F20" transform="translate(728,569)"/>
<path d="M0 0 C0 0.66 0 1.32 0 2 C-3.96 2 -7.92 2 -12 2 C-12 1.34 -12 0.68 -12 0 C-10.56359829 -0.19573608 -9.12580496 -0.38127816 -7.6875 -0.5625 C-6.88699219 -0.66691406 -6.08648437 -0.77132813 -5.26171875 -0.87890625 C-3 -1 -3 -1 0 0 Z " fill="#181C1E" transform="translate(92,430)"/>
<path d="M0 0 C3.63 0.33 7.26 0.66 11 1 C11 1.66 11 2.32 11 3 C6.71 3 2.42 3 -2 3 C-1.34 2.01 -0.68 1.02 0 0 Z " fill="#15191C" transform="translate(389,365)"/>
<path d="M0 0 C0 0.66 0 1.32 0 2 C-5.05002222 3.03590199 -9.87416389 3.10251672 -15 3 C-15 2.67 -15 2.34 -15 2 C-9.77487721 0.53329887 -5.4185766 -0.22577402 0 0 Z " fill="#D8D9D9" transform="translate(194,443)"/>
<path d="M0 0 C0.66 0.33 1.32 0.66 2 1 C0.17251097 3.46313739 -1.22976216 4.83428618 -4.26953125 5.48828125 C-6.51479346 5.72518293 -8.74455578 5.90361349 -11 6 C-7.57874946 3.12614955 -4.16111563 1.54115394 0 0 Z " fill="#373A3C" transform="translate(357,377)"/>
<path d="M0 0 C3.45201639 1.47721422 5.64961936 3.43794001 8.25 6.125 C8.95640625 6.84945313 9.6628125 7.57390625 10.390625 8.3203125 C11.18726563 9.15175781 11.18726563 9.15175781 12 10 C11.01 10.33 10.02 10.66 9 11 C8.51789062 10.43410156 8.03578125 9.86820312 7.5390625 9.28515625 C6.90742187 8.55167969 6.27578125 7.81820313 5.625 7.0625 C4.99851562 6.33160156 4.37203125 5.60070312 3.7265625 4.84765625 C2.12252286 2.91619094 2.12252286 2.91619094 0 2 C0 1.34 0 0.68 0 0 Z " fill="#E0E1E1" transform="translate(550,275)"/>
<path d="M0 0 C-0.33 1.32 -0.66 2.64 -1 4 C-3.31 4 -5.62 4 -8 4 C-8 3.01 -8 2.02 -8 1 C-5.07175348 0.02391783 -3.04386724 -0.08226668 0 0 Z " fill="#2D3032" transform="translate(673,202)"/>
<path d="M0 0 C-1.625 5.75 -1.625 5.75 -5 8 C-5.1875 5.125 -5.1875 5.125 -5 2 C-2 0 -2 0 0 0 Z " fill="#333638" transform="translate(733,759)"/>
<path d="M0 0 C2.875 -0.125 2.875 -0.125 6 0 C6.66 0.66 7.32 1.32 8 2 C5.35261084 3.4606285 4.10551666 4 1 4 C0.67 2.68 0.34 1.36 0 0 Z " fill="#1E2224" transform="translate(615,672)"/>
<path d="M0 0 C-0.33 0.99 -0.66 1.98 -1 3 C-3.97 3 -6.94 3 -10 3 C-10 2.34 -10 1.68 -10 1 C-6.56484998 0.37542727 -3.50935186 0 0 0 Z " fill="#171B1E" transform="translate(129,445)"/>
<path d="M0 0 C3.375 -0.125 3.375 -0.125 7 0 C7.66 0.66 8.32 1.32 9 2 C6 4 6 4 3 4 C3 3.34 3 2.68 3 2 C2.01 1.67 1.02 1.34 0 1 C0 0.67 0 0.34 0 0 Z " fill="#1F2324" transform="translate(566,240)"/>
<path d="M0 0 C2 3 2 3 2 7 C0.68 7.33 -0.64 7.66 -2 8 C-2 6.02 -2 4.04 -2 2 C-1.34 2 -0.68 2 0 2 C0 1.34 0 0.68 0 0 Z " fill="#404345" transform="translate(684,214)"/>
<path d="M0 0 C0.66 0.33 1.32 0.66 2 1 C1.01 2.32 0.02 3.64 -1 5 C-3.97 4.505 -3.97 4.505 -7 4 C-4.61426621 2.10786631 -2.92824652 0.97608217 0 0 Z " fill="#2E3234" transform="translate(272,417)"/>
<path d="M0 0 C0.66 0.66 1.32 1.32 2 2 C2.99 1.34 3.98 0.68 5 0 C4.375 1.875 4.375 1.875 3 4 C-0.125 5.25 -0.125 5.25 -3 6 C-3 4.68 -3 3.36 -3 2 C-2.01 2 -1.02 2 0 2 C0 1.34 0 0.68 0 0 Z " fill="#6C6F6F" transform="translate(867,407)"/>
<path d="M0 0 C0.66 0 1.32 0 2 0 C2 2.31 2 4.62 2 7 C0.68 6.67 -0.64 6.34 -2 6 C-1.34 4.02 -0.68 2.04 0 0 Z " fill="#1B1F21" transform="translate(710,297)"/>
<path d="M0 0 C3.59905908 0.55550695 4.99909799 1.74887248 7.25 4.5625 C8.03117188 5.52349609 8.03117188 5.52349609 8.828125 6.50390625 C9.21484375 6.99761719 9.6015625 7.49132812 10 8 C9.67 8.66 9.34 9.32 9 10 C8.60167969 9.52949219 8.20335937 9.05898437 7.79296875 8.57421875 C7.26316406 7.95160156 6.73335937 7.32898438 6.1875 6.6875 C5.66542969 6.07261719 5.14335938 5.45773438 4.60546875 4.82421875 C3.12827531 3.14575321 1.59960869 1.56117966 0 0 Z " fill="#E2E3E3" transform="translate(564,167)"/>
<path d="M0 0 C3.63 0.33 7.26 0.66 11 1 C10.01 1.33 9.02 1.66 8 2 C8 2.66 8 3.32 8 4 C6.35 4 4.7 4 3 4 C3.33 3.01 3.66 2.02 4 1 C2.68 0.67 1.36 0.34 0 0 Z " fill="#424547" transform="translate(125,444)"/>
<path d="M0 0 C0 0.66 0 1.32 0 2 C-2.97 2 -5.94 2 -9 2 C-9 1.34 -9 0.68 -9 0 C-5.62182575 -0.84454356 -3.32534757 -1.10844919 0 0 Z " fill="#181D1F" transform="translate(584,366)"/>
<path d="M0 0 C-0.33 0.99 -0.66 1.98 -1 3 C-4.63 3 -8.26 3 -12 3 C-12 2.67 -12 2.34 -12 2 C-10.56342755 1.66269158 -9.12569907 1.33030409 -7.6875 1 C-6.88699219 0.814375 -6.08648438 0.62875 -5.26171875 0.4375 C-3 0 -3 0 0 0 Z " fill="#1C2022" transform="translate(566,357)"/>
<path d="M0 0 C1.4800841 0.11362262 2.95910074 0.24122908 4.4375 0.375 C5.26121094 0.44460938 6.08492187 0.51421875 6.93359375 0.5859375 C7.95646484 0.79089844 7.95646484 0.79089844 9 1 C9.33 1.66 9.66 2.32 10 3 C6.7 3 3.4 3 0 3 C0 2.01 0 1.02 0 0 Z " fill="#171B1E" transform="translate(846,269)"/>
<path d="M0 0 C0.99 0.33 1.98 0.66 3 1 C0.38485683 3.12038635 -2.19637616 5.13091744 -5 7 C-5 6.01 -5 5.02 -5 4 C-2.6875 1.75 -2.6875 1.75 0 0 Z " fill="#303334" transform="translate(653,165)"/>
<path d="M0 0 C0 2 0 4 0 6 C-2.64 6.33 -5.28 6.66 -8 7 C-7.236875 6.401875 -6.47375 5.80375 -5.6875 5.1875 C-3.6516425 3.53040668 -1.8021721 1.89702326 0 0 Z " fill="#2C3032" transform="translate(654,368)"/>
<path d="M0 0 C0.66 0 1.32 0 2 0 C2.33 2.64 2.66 5.28 3 8 C1.68 7.34 0.36 6.68 -1 6 C-0.67 4.02 -0.34 2.04 0 0 Z " fill="#343637" transform="translate(633,290)"/>
<path d="M0 0 C-0.99 1.485 -0.99 1.485 -2 3 C-4.625 3.1875 -4.625 3.1875 -7 3 C-7.33 2.34 -7.66 1.68 -8 1 C-3.375 -1.125 -3.375 -1.125 0 0 Z " fill="#2F3233" transform="translate(665,205)"/>
<path d="M0 0 C1.98 0 3.96 0 6 0 C6.33 0.99 6.66 1.98 7 3 C4.36 3 1.72 3 -1 3 C-0.67 2.01 -0.34 1.02 0 0 Z " fill="#202326" transform="translate(633,181)"/>
<path d="M0 0 C2.475 0.99 2.475 0.99 5 2 C5 2.66 5 3.32 5 4 C4.278125 3.79375 3.55625 3.5875 2.8125 3.375 C-0.44641585 2.94047789 -2.08304504 3.58319331 -5 5 C-3.35 3.35 -1.7 1.7 0 0 Z " fill="#F0F0F0" transform="translate(653,163)"/>
<path d="M0 0 C2.97 0 5.94 0 9 0 C6.53721199 2.46278801 4.29323018 2.99771255 1 4 C0.67 2.68 0.34 1.36 0 0 Z " fill="#1A1E20" transform="translate(776,536)"/>
<path d="M0 0 C1.2065625 0.0309375 1.2065625 0.0309375 2.4375 0.0625 C2.4375 1.0525 2.4375 2.0425 2.4375 3.0625 C0.7875 3.3925 -0.8625 3.7225 -2.5625 4.0625 C-2.8925 3.0725 -3.2225 2.0825 -3.5625 1.0625 C-2.5625 0.0625 -2.5625 0.0625 0 0 Z " fill="#181C1D" transform="translate(741.5625,391.9375)"/>
<path d="M0 0 C0.99 0.33 1.98 0.66 3 1 C3.6875 3.0625 3.6875 3.0625 4 5 C2.35 5 0.7 5 -1 5 C-1.33 4.01 -1.66 3.02 -2 2 C-1.34 1.34 -0.68 0.68 0 0 Z " fill="#1C2021" transform="translate(565,259)"/>
<path d="M0 0 C0.66 0 1.32 0 2 0 C0.63055898 2.94956528 -0.87830409 5.52468811 -3 8 C-3.66 8 -4.32 8 -5 8 C-3.63055898 5.05043472 -2.12169591 2.47531189 0 0 Z " fill="#E4E5E4" transform="translate(589,696)"/>
<path d="M0 0 C0.66 0.33 1.32 0.66 2 1 C2 2.98 2 4.96 2 7 C1.01 7 0.02 7 -1 7 C-0.67 4.69 -0.34 2.38 0 0 Z " fill="#1C1F22" transform="translate(414,576)"/>
<path d="M0 0 C0 0.66 0 1.32 0 2 C-2.97 2 -5.94 2 -9 2 C-8.67 1.34 -8.34 0.68 -8 0 C-2.55072464 -1.27536232 -2.55072464 -1.27536232 0 0 Z " fill="#161A1C" transform="translate(256,430)"/>
<path d="M0 0 C1.42944945 2.35438733 2.08661261 3.48032433 1.625 6.25 C1.41875 6.8275 1.2125 7.405 1 8 C0.01 8 -0.98 8 -2 8 C-1.47731534 5.23723823 -0.89130413 2.6739124 0 0 Z " fill="#3C4041" transform="translate(731,418)"/>
<path d="M0 0 C1.65 0 3.3 0 5 0 C5.33 0.99 5.66 1.98 6 3 C4.02 3.99 4.02 3.99 2 5 C1.34 3.35 0.68 1.7 0 0 Z " fill="#1D2022" transform="translate(567,280)"/>
<path d="M0 0 C0.33 0.66 0.66 1.32 1 2 C1.639375 2.28875 2.27875 2.5775 2.9375 2.875 C5.42001234 4.22909764 5.96871397 5.42178493 7 8 C4.13792848 6.71700242 1.9754912 5.469364 0 3 C0 2.01 0 1.02 0 0 Z " fill="#EDEDED" transform="translate(546,182)"/>
<path d="M0 0 C2.64 1.98 5.28 3.96 8 6 C7.01 6.33 6.02 6.66 5 7 C2.3125 5.25 2.3125 5.25 0 3 C0 2.01 0 1.02 0 0 Z " fill="#E8E9E9" transform="translate(616,180)"/>
<path d="M0 0 C0 0.33 0 0.66 0 1 C-2.64 1.33 -5.28 1.66 -8 2 C-8.33 1.34 -8.66 0.68 -9 0 C-5.93109813 -1.53445094 -3.29905734 -0.54984289 0 0 Z " fill="#333537" transform="translate(223,499)"/>
<path d="M0 0 C0 0.99 0 1.98 0 3 C-0.99 3.33 -1.98 3.66 -3 4 C-3.33 4.99 -3.66 5.98 -4 7 C-4.99 6.67 -5.98 6.34 -7 6 C-4.69 4.02 -2.38 2.04 0 0 Z " fill="#DCDFDD" transform="translate(867,411)"/>
<path d="M0 0 C0.33 0 0.66 0 1 0 C1 1.98 1 3.96 1 6 C-0.32 6 -1.64 6 -3 6 C-1.125 1.125 -1.125 1.125 0 0 Z " fill="#1B1E1F" transform="translate(671,346)"/>
<path d="M0 0 C0.66 0.33 1.32 0.66 2 1 C-0.31 3.31 -2.62 5.62 -5 8 C-5.33 7.01 -5.66 6.02 -6 5 C-4.02 3.35 -2.04 1.7 0 0 Z " fill="#D9DAD9" transform="translate(635,216)"/>
</svg>
