<?xml version="1.0" encoding="UTF-8" standalone="no"?><!DOCTYPE svg PUBLIC "-//W3C//DTD SVG 1.1//EN" "http://www.w3.org/Graphics/SVG/1.1/DTD/svg11.dtd"><svg xmlns="http://www.w3.org/2000/svg" xmlns:xlink="http://www.w3.org/1999/xlink" version="1.1" width="388" height="388" viewBox="0 0 388 388">
<desc>Created with SVGMaker Editor 3.0.0</desc>
<defs id="defs3051">
    <style type="text/css" id="current-color-scheme">
      .ColorScheme-Text {
        color:#232629
      }
      </style>
  </defs>
<path transform="translate(0,0)" style="fill:currentColor;fill-rule:evenodd" stroke-linecap="round" d="M247.6513 83.4245L254.1273 99.8152 236.8085 106.3286 235.7164 100.9444 248.8239 99.1218 243.5173 85.1431 247.6513 83.4245ZM278.507 90.9798L259.6164 97.6463 253.7326 81.275 257.9431 79.9582 262.3568 92.2361 275.7509 85.4933 278.507 90.9798ZM268.818 118.3249L262.1351 102.0175 279.3702 95.2859 280.5305 100.6557 267.4475 102.6437 272.9294 116.5545 268.818 118.3249ZM237.8691 111.1601L256.674 104.2555 262.7643 120.5511 258.5704 121.921 254.0028 109.6996 240.6942 116.6112 237.8691 111.1601Z" class="ColorScheme-Text"/>
<path transform="translate(0,0)" style="fill:currentColor" stroke-linecap="round" d="M326.5755 197.3449L328.2375 193.1919C363.3995 188.7619 374.7545 165.8329 372.9085 150.9729 370.9705 135.3729 355.0935 121.6209 349.2795 119.2679 349.2795 119.2679 353.7095 84.3819 344.0185 84.3819 332.6535 84.3819 317.1625 110.9609 317.1625 110.9609L313.0095 110.9609C313.0095 110.9609 312.7325 86.5969 305.8095 86.8739 290.8705 87.4739 274.7995 128.9579 274.7995 128.9579 271.1995 132.8339 270.3695 142.2479 259.8485 153.0459 249.3275 163.8439 223.6045 162.4029 203.1155 162.1259 182.6265 161.8489 162.3915 178.7949 162.3915 178.7949 156.0235 178.7949 138.3035 175.4719 123.0755 174.3649 107.8475 173.2579 75.7305 175.1959 67.1475 176.3029 58.5645 177.4099 6.7895 188.7619 9.8355 200.1139 12.8815 211.4659 34.1995 204.2669 59.9485 200.1139 85.6975 195.9609 125.2905 195.6839 134.7045 198.7299 144.1185 201.7759 133.3195 219.2179 116.1535 223.9299 98.9875 228.6419 84.0365 246.3509 76.5615 254.3819 69.0865 262.4129 62.1615 277.6389 78.4995 278.4699 94.8375 279.3009 110.6165 261.8569 118.3685 259.0889 126.1205 256.3209 120.5835 267.3949 117.8145 274.3159 115.0455 281.2369 111.4465 302.8339 122.7985 303.6649 134.1505 304.4959 151.5985 278.1929 154.9155 273.4859 158.2325 268.7789 172.9155 262.1339 176.2345 259.0859 179.5535 256.0379 188.4175 246.6259 188.4175 246.6259 188.4175 246.6259 220.8115 245.7959 237.1465 242.7499 253.4815 239.7039 268.9865 227.2499 277.2925 226.1379 285.5985 225.0259 297.2275 233.3379 300.2735 235.5519 303.3195 237.7659 326.0225 251.3329 337.3735 254.1019 348.7245 256.8709 349.8335 241.9199 349.8335 241.9199 349.8335 241.9199 359.8005 246.9029 365.3335 235.5519 370.8665 224.2009 326.5755 197.3449 326.5755 197.3449ZM298.1505 125.1739C295.6585 128.5889 286.1505 130.1579 286.1505 130.1579 286.1505 130.1579 292.6105 110.9579 302.9505 106.8079 304.7035 116.2219 301.2115 120.9819 298.1505 125.1739ZM351.4015 132.6739C356.9015 132.6739 371.296 132.4822 361.3685 145.1329 348.5887 162.7586 351.5811 157.3018 351.4015 157.5919 351.7572 157.6539 354.9256 161.8785 341.4345 145.1329 332.2184 133.3624 345.8965 132.6819 351.4015 132.6819ZM340.3875 100.4539C341.0425 107.4309 338.1125 115.0469 338.1125 115.0469 335.2259 114.0201 332.2024 113.4292 329.1415 113.2939 333.7555 104.1109 337.0045 101.3629 340.3875 100.4539ZM318.2695 159.3219C318.4884 159.062 322.713 164.3428 308.3025 146.8619 297.3653 134.2425 312.7645 134.4029 318.2695 134.4029 323.7745 134.4029 338.3792 133.1863 328.2375 146.8619 314.2638 164.3428 318.3124 159.4141 318.2695 159.3219Z" class="ColorScheme-Text"/>
</svg>