<?xml version="1.0" encoding="UTF-8" standalone="no"?><!DOCTYPE svg PUBLIC "-//W3C//DTD SVG 1.1//EN" "http://www.w3.org/Graphics/SVG/1.1/DTD/svg11.dtd"><svg xmlns="http://www.w3.org/2000/svg" xmlns:xlink="http://www.w3.org/1999/xlink" version="1.1" width="388" height="388" viewBox="0 0 388 388">
<desc>Created with SVGMaker Editor 3.0.0</desc>
<defs id="defs3051">
    <style type="text/css" id="current-color-scheme">
      .ColorScheme-Text {
        color:#232629
      }
      </style>
  </defs>
<path transform="translate(0,0)" style="fill:currentColor;fill-rule:evenodd" stroke-linecap="round" d="M279.2324 85.3364L285.7084 101.727 268.3896 108.2404 267.2976 102.8562 280.405 101.0336 275.0984 87.0549 279.2324 85.3364ZM310.0882 92.8916L291.1975 99.5581 285.3138 83.1868 289.5243 81.8701 293.9379 94.1479 307.332 87.4052 310.0882 92.8916ZM300.3992 120.2367L293.7162 103.9294 310.9513 97.1978 312.1117 102.5676 299.0286 104.5555 304.5106 118.4663 300.3992 120.2367ZM269.4502 113.0719L288.2551 106.1674 294.3454 122.4629 290.1516 123.8328 285.584 111.6115 272.2754 118.523 269.4502 113.0719Z" class="ColorScheme-Text"/>
<path transform="translate(0,0)" style="fill:currentColor" stroke-linecap="round" d="M 382.705 182.19956 C 387.135 162.81856 364.705 144.54556 364.705 144.54556 C 364.705 144.54556 371.35 113.39756 364.705 110.76656 C 353.04 106.14956 333.972 133.19356 333.972 133.19356 L 329.265 132.36256 C 334.388 99.83056 323.589 106.06256 310.3 117.96256 C 297.011 129.86256 284.966 154.23256 276.383 162.26256 C 267.8 170.29256 257.556 167.52256 238.175 158.37556 C 218.794 149.22856 196.09 152.29456 187.507 157.00156 C 178.924 161.70856 171.73 158.94256 171.73 158.94256 C 171.73 158.94256 147.088 141.49956 139.336 138.17756 C 131.584 134.85556 110.818 125.44156 85.346 124.88756 C 59.874 124.33356 38.554 134.85456 38.554 134.85456 C 28.033 143.99156 39.939 151.74356 51.291 149.25456 C 62.643 146.76556 89.499 143.16256 108.049 147.31556 C 126.599 151.46856 154.84 172.51556 154.287 178.60256 C 153.734 184.68956 142.197 195.40256 129.087 198.26056 C 116.187 201.07556 80.912 227.33156 79.804 240.89856 C 78.696 254.46556 94.204 255.29856 109.43 247.54356 C 124.656 239.78856 136.286 246.15956 136.286 246.15956 C 122.166 260.00256 120.786 276.89156 132.686 279.38356 C 144.586 281.87556 154.835 269.69356 169.786 256.12656 C 184.737 242.55956 199.686 236.19156 223.223 238.96056 C 246.76 241.72956 284.134 238.40656 284.134 238.40656 C 294.102 248.09756 327.049 268.58556 339.234 274.39956 C 351.419 280.21356 364.983 276.89156 366.644 270.79956 C 368.305 264.70756 350.032 250.03456 351.693 246.15856 C 353.354 242.28256 371.154 249.38356 378.104 239.05856 C 384.504 229.54956 351.97 214.59856 346.704 213.21456 C 341.438 211.83056 344.489 207.40056 344.489 207.40056 C 361.94 205.73356 378.276 201.58056 382.705 182.19956 Z M 364.315 158.95156 C 369.876 158.95156 382.97058 159.58743 374.384 170.74156 C 361.84753 185.99123 364.48792 182.9988 364.315 182.53156 C 364.48792 182.82277 368.5365 187.39943 354.247 170.74156 C 346.00525 159.23538 358.755 158.95156 364.315 158.95156 Z M 359.587 123.91856 C 359.587 123.91856 360.867 130.52856 354.568 139.38856 C 351.65785 138.06462 348.6246 137.02998 345.512 136.29956 C 345.512 136.29956 353.772 124.61056 359.587 123.91856 Z M 312.38 144.54556 C 309.18 147.17356 301.444 147.72956 301.444 147.72956 C 301.444 147.72956 307.031 131.57356 320.528 125.96656 C 320.251 134.54956 318.656 139.38856 312.38 144.54556 Z M 331.946 180.05156 C 331.7472 180.18239 335.79578 185.28713 321.056 167.52556 C 311.50429 154.30667 325.931 154.99956 331.946 154.99956 C 337.961 154.99956 352.87024 154.65872 342.836 167.52556 C 328.40272 183.87892 331.7472 180.18239 331.946 180.05156 Z" class="ColorScheme-Text"/>
</svg>