<?xml version="1.0" encoding="UTF-8" standalone="no"?><!DOCTYPE svg PUBLIC "-//W3C//DTD SVG 1.1//EN" "http://www.w3.org/Graphics/SVG/1.1/DTD/svg11.dtd"><svg xmlns="http://www.w3.org/2000/svg" xmlns:xlink="http://www.w3.org/1999/xlink" version="1.1" width="388" height="388" viewBox="0 0 388 388">
<desc>Created with SVGMaker Editor 3.0.0</desc>
<defs id="defs3051">
    <style type="text/css" id="current-color-scheme">
      .ColorScheme-Text {
        color:#232629
      }
      </style>
  </defs>
<path transform="translate(0,0)" style="fill:currentColor;fill-rule:evenodd" stroke-linecap="round" d="M240.954 78.6377L247.43 95.0283 230.1112 101.5417 229.0191 96.1575 242.1266 94.3349 236.82 80.3562 240.954 78.6377ZM271.8097 86.1929L252.9191 92.8594 247.0353 76.4881 251.2458 75.1713 255.6594 87.4492 269.0536 80.7065 271.8097 86.1929ZM262.1207 113.538L255.4378 97.2307 272.6729 90.499 273.8332 95.8689 260.7502 97.8568 266.2321 111.7676 262.1207 113.538ZM231.1717 106.3732L249.9767 99.4687 256.067 115.7642 251.8731 117.1341 247.3055 104.9127 233.9969 111.8243 231.1717 106.3732Z" class="ColorScheme-Text"/>
<path transform="translate(0,0)" style="fill:currentColor" stroke-linecap="round" d="M 328.854 134.31128 C 328.854 134.31128 338.821 103.43928 329.546 100.11728 C 320.271 96.79528 300.059 119.21728 300.059 119.21728 L 295.076 118.11028 C 297.983 93.05328 295.353 90.69928 280.54 101.63628 C 265.727 112.57328 253.96 132.50728 250.915 135.69128 C 247.87 138.87528 244.962 150.64228 217.415 136.93728 C 189.868 123.23228 172.701 131.12328 156.78 134.99928 C 140.859 138.87528 106.667 157.56428 87.839 164.76228 C 69.011 171.96028 49.908 168.91628 45.755 168.22328 C 41.602 167.53028 22.355 152.99528 15.161 160.88628 C 7.967 168.77728 15.853 177.22228 23.744 183.58628 C 31.635 189.95028 51.016 192.58628 67.489 192.03028 C 83.962 191.47428 133.389 173.75728 133.389 173.75728 C 136.204 177.67928 134.266 176.47928 135.373 189.03128 C 136.48 201.58328 151.247 213.03128 155.123 217.64128 C 158.999 222.25128 156.046 227.42428 156.784 239.24128 C 157.522 251.05828 168.784 250.68528 178.565 250.68528 C 188.346 250.68528 191.855 256.22228 193.701 260.46828 C 195.547 264.71428 198.869 270.62028 209.201 270.62028 C 219.533 270.62028 221.383 266.55928 224.152 262.49828 C 226.921 258.43728 236.152 254.37628 240.395 254.74628 C 244.638 255.11628 247.409 275.78828 251.654 282.98628 C 255.899 290.18428 271.404 294.24628 274.173 292.03128 C 276.942 289.81628 280.264 288.70828 275.465 273.01928 C 270.666 257.33028 274.173 233.33428 275.65 225.76628 C 277.127 218.19828 278.787 207.30828 305.921 202.14028 C 333.055 196.97228 346.529 183.68228 346.529 165.96228 C 346.529 148.24228 328.854 134.31128 328.854 134.31128 Z M 279.386 128.72728 C 276.12798 131.61973 271.8202 133.03853 267.481 132.64828 C 267.481 132.64828 275.233 116.82128 286.401 114.23628 C 286.4 114.23728 287.231 121.75928 279.386 128.72728 Z M 295.03 166.57428 C 294.93642 166.84942 299.23642 171.24942 284.693 155.11428 C 276.73642 144.74942 289.321 143.65428 295.03 143.65428 C 300.739 143.65428 313.53642 145.64942 305.366 155.11428 C 292.03642 170.24942 295.13642 166.74942 295.03 166.57428 Z M 311.73 124.66628 C 311.73 124.66628 318.89 115.20628 323.25 114.23728 C 323.527 119.68328 322.443 124.34328 318.797 128.03728 C 316.62209 126.56652 314.23892 125.43022 311.727 124.66628 Z M 328.63 171.74328 C 328.93642 171.94942 331.93642 175.44942 319.401 161.05028 C 311.63643 150.24942 323.533 150.35728 328.63 150.35728 C 333.727 150.35728 345.03643 150.84942 337.859 161.05028 C 326.13642 175.14942 328.63642 171.94942 328.623 171.74828 Z" class="ColorScheme-Text"/>
</svg>