<?xml version="1.0" encoding="UTF-8" standalone="no"?><!DOCTYPE svg PUBLIC "-//W3C//DTD SVG 1.1//EN" "http://www.w3.org/Graphics/SVG/1.1/DTD/svg11.dtd"><svg xmlns="http://www.w3.org/2000/svg" xmlns:xlink="http://www.w3.org/1999/xlink" version="1.1" width="388" height="388" viewBox="0 0 388 388">
<desc>Created with SVGMaker Editor 3.0.0</desc>
<defs id="defs3051">
    <style type="text/css" id="current-color-scheme">
      .ColorScheme-Text {
        color:#232629
      }
      </style>
  </defs>
<path transform="translate(0,0)" style="fill:currentColor;fill-rule:evenodd" stroke-linecap="round" d="M265.3565 108.7819L271.8325 125.1726 254.5137 131.686 253.4216 126.3018 266.5291 124.4792 261.2225 110.5005 265.3565 108.7819ZM296.2122 116.3372L277.3216 123.0037 271.4378 106.6324 275.6483 105.3156 280.062 117.5935 293.4561 110.8507 296.2122 116.3372ZM286.5232 143.6823L279.8403 127.3749 297.0754 120.6433 298.2357 126.0131 285.1527 128.0011 290.6346 141.9119 286.5232 143.6823ZM255.5743 136.5175L274.3792 129.6129 280.4695 145.9085 276.2757 147.2784 271.708 135.057 258.3994 141.9686 255.5743 136.5175Z" class="ColorScheme-Text"/>
<path transform="translate(0,0)" style="fill:currentColor" stroke-linecap="round" d="M 364.709 159.58645 C 364.709 159.58645 377.722 129.75345 369.692 127.46945 C 353.992 123.00445 337.348 142.29245 337.348 142.29245 L 333.33 141.40545 C 333.33 141.40545 336.745 126.63945 336.191 119.71745 C 335.637 112.79545 317.641 120.54745 307.396 129.13045 C 297.151 137.71345 277.496 165.40145 265.589 170.66145 C 253.682 175.92145 240.117 157.64845 221.843 144.63545 C 203.569 131.62245 177.267 142.14345 177.267 142.14345 C 172.837 140.75945 166.192 128.57745 153.179 115.84345 C 140.166 103.10945 126.6 93.13746 96.7 88.15345 C 66.8 83.16945 52.534 92.94245 54.2 99.31045 C 55.866 105.67845 58.5 105.45845 92.552 108.64245 C 131.677 112.30045 142.666 132.17645 152.08 143.52845 C 161.494 154.88045 149.034 166.22845 138.236 181.73645 C 127.438 197.24445 131.314 208.03645 133.252 221.05245 C 135.19 234.06845 146.819 237.38745 148.752 256.21445 C 150.685 275.04145 155.397 281.41445 167.303 277.25745 C 178.939 273.19745 174.179 233.71845 173.958 231.93545 C 174.07 232.22945 175.28 232.90245 186.958 227.42045 C 200.525 221.05245 213.815 230.74245 231.258 235.17245 C 248.701 239.60245 261.437 234.89545 265.867 244.86345 C 274.767 264.88145 289.124 289.99345 306.567 298.85345 C 324.01 307.71345 327.332 289.99345 321.241 282.79445 C 315.15 275.59545 314.041 263.69445 314.041 263.69445 C 348.926 268.67845 357.232 262.03345 358.341 253.45045 C 359.45 244.86745 340.621 240.16045 331.484 235.45045 C 322.347 230.74045 328.716 223.26845 328.716 223.26845 C 357.787 219.94545 374.584 211.91645 377.168 190.87445 C 379.311 173.42145 364.709 159.58645 364.709 159.58645 Z M 302.409 151.55745 C 302.409 151.55745 312.838 135.68345 324.651 132.54545 C 324.651 132.54545 324.097 143.89745 318.744 148.23545 C 312.448 153.34045 302.413 151.55945 302.413 151.55945 Z M 328.435 188.56545 C 328.62338 188.593 333.20004 194.04979 317.914 176.66045 C 309.78867 164.82958 322.624 164.75445 328.435 164.75445 C 334.246 164.75445 348.33822 165.53368 338.956 176.66045 C 325.10288 193.16966 328.62338 188.76903 328.439 188.56545 Z M 362.951 138.82145 C 362.969 142.29245 358.551 150.93745 355.992 152.44145 C 353.79999 150.32373 351.07624 148.83799 348.109 148.14145 C 349.865 145.94845 356.68 138.79645 362.955 138.82145 Z M 360.094 194.45945 C 359.77987 194.40184 363.4764 198.9785 350.888 183.48545 C 342.00131 172.22264 355.01 172.51245 360.094 172.51245 C 365.178 172.51245 377.73445 172.39867 369.301 183.48545 C 356.43538 198.45042 359.95589 194.22581 360.094 194.45945 Z" class="ColorScheme-Text"/>
</svg>