<?xml version="1.0" encoding="UTF-8" standalone="no"?><!DOCTYPE svg PUBLIC "-//W3C//DTD SVG 1.1//EN" "http://www.w3.org/Graphics/SVG/1.1/DTD/svg11.dtd"><svg xmlns="http://www.w3.org/2000/svg" xmlns:xlink="http://www.w3.org/1999/xlink" version="1.1" width="388" height="388" viewBox="0 0 388 388">
<desc>Created with SVGMaker Editor 3.0.0</desc>
<defs id="defs3051">
    <style type="text/css" id="current-color-scheme">
      .ColorScheme-Text {
        color:#232629
      }
      </style>
  </defs>
<path transform="translate(0,0)" style="fill:currentColor" stroke-linecap="round" d="M337.8183 114.8472C337.8083 101.3832 339.4793 81.0682 329.6683 79.6842 319.8573 78.3002 304.5943 106.2632 304.5943 106.2632L300.1643 106.8172C300.1643 106.8172 303.7643 80.7912 291.3043 83.5602 278.8443 86.3292 263.6173 125.3712 263.6173 125.3712 263.6173 125.3712 258.0793 129.8002 254.2033 143.6712 250.3273 157.5422 235.6533 157.7612 211.2883 154.7162 186.9233 151.6712 163.9433 172.1592 163.9433 172.1592 141.7933 171.3282 122.9663 174.3742 108.5693 179.9112 94.1723 185.4482 76.4523 203.7222 53.1943 202.0612 29.9363 200.4002 18.8623 204.5532 20.2473 212.5822 21.6323 220.6112 29.6603 221.9962 42.6733 223.3822 55.6863 224.7682 87.5263 215.9062 108.0153 204.0012 120.6467 196.8258 135.0283 193.3133 149.5453 193.8582 146.7773 218.0482 156.1913 215.0762 155.0833 238.8872 153.9753 262.6982 163.6663 285.6782 179.4483 298.4142 195.2303 311.1502 201.0483 304.5052 201.5973 296.7532 202.1463 289.0012 185.8163 269.0662 185.2623 261.3132 184.7083 253.5602 194.3993 259.9292 195.5063 261.8672 196.6133 263.8052 212.3953 279.0332 225.4063 282.3562 238.4173 285.6792 232.6063 266.5742 227.8983 255.2222 223.1903 243.8702 231.4983 233.0722 246.9983 230.5812 262.4983 228.0902 269.6983 236.3952 266.6563 246.6392 263.6143 256.8832 262.5033 271.5582 275.5163 270.7272 288.5293 269.8962 309.8483 238.6102 311.5093 220.0592 313.1703 201.5082 315.6623 191.2652 327.5683 187.3892 339.4743 183.5132 361.0683 171.6072 361.0683 149.4572 361.0683 127.3072 337.8183 114.8472 337.8183 114.8472ZM291.0963 115.9542C289.5043 122.0452 274.6963 127.0982 274.6963 127.0982 274.6963 127.0982 276.5693 105.4332 292.5583 100.8182 292.9642 105.9102 292.4693 111.034 291.0963 115.9542ZM307.2783 155.3392C307.0884 154.9763 310.8884 159.4763 297.4283 143.6662 287.8884 131.4763 300.8884 131.9763 307.2783 131.9952 312.7113 131.9952 325.9884 130.0763 317.1283 143.6662 304.4884 158.3763 307.0884 155.0763 307.2783 155.3392ZM328.5893 111.4322C324.4343 109.4262 322.0893 108.3582 317.7063 107.9152 317.7063 107.9152 320.5143 96.2962 329.0513 93.8042 330.333 99.6303 330.1744 105.6812 328.5893 111.4322ZM340.1893 152.3632C340.2749 151.9049 343.8749 156.5049 330.3393 140.7192 320.4749 129.4049 334.7583 129.0712 340.1913 129.0712 345.6243 129.0712 359.9749 129.4049 350.0383 140.7172 337.4749 155.1049 340.2749 152.2049 340.1913 152.3632Z" class="ColorScheme-Text"/>
<path transform="translate(0,0)" style="fill:currentColor;fill-rule:evenodd" stroke-linecap="round" d="M225.8208 87.7009L232.2968 104.0915 214.9781 110.6049 213.886 105.2207 226.9934 103.3981 221.6868 89.4194 225.8208 87.7009ZM256.6766 95.2561L237.7859 101.9226 231.9022 85.5513 236.1127 84.2346 240.5263 96.5124 253.9204 89.7697 256.6766 95.2561ZM246.9876 122.6012L240.3047 106.2939 257.5398 99.5623 258.7001 104.9321 245.6171 106.92 251.099 120.8308 246.9876 122.6012ZM216.0386 115.4364L234.8435 108.5319 240.9338 124.8274 236.74 126.1973 232.1724 113.976 218.8638 120.8875 216.0386 115.4364Z" class="ColorScheme-Text"/>
</svg>